<?xml version="1.0" encoding="utf-8"?>
<!-- Generator: Adobe Illustrator 16.0.0, SVG Export Plug-In . SVG Version: 6.00 Build 0)  -->
<!DOCTYPE svg PUBLIC "-//W3C//DTD SVG 1.1//EN" "http://www.w3.org/Graphics/SVG/1.1/DTD/svg11.dtd">
<svg version="1.1" id="Layer_1" xmlns="http://www.w3.org/2000/svg" xmlns:xlink="http://www.w3.org/1999/xlink" x="0px" y="0px"
	 width="722.834px" height="428.031px" viewBox="0 0 722.834 428.031" enable-background="new 0 0 722.834 428.031"
	 xml:space="preserve">
<g>
	<g>
		<path fill="#FFFFFF" d="M545.183,326.869c0.146,0,0.336-0.108,0.519-0.334c0.271-0.297,0.975-1.348,2.283-1.348
			c1.157,0,1.866,0.561,2.541,0.859c0.521,0.262,1.719,0.969,2.946,0.969c1.162,0,2.806-1.973,3.104-2.57
			c0.111-0.229,0.147-0.336,0.147-0.486c0-0.114-0.11-0.227-0.265-0.227c-0.112,0-0.297,0.188-0.444,0.406
			c-0.112,0.151-0.896,1.088-2.276,1.088c-0.601,0-1.647-0.375-2.17-0.633c-1.158-0.562-2.242-1.158-3.146-1.158
			c-1.188,0-2.684,1.826-3.209,2.648c-0.146,0.225-0.258,0.37-0.258,0.563C544.959,326.759,545.03,326.869,545.183,326.869z"/>
		<path fill="#FFFFFF" d="M152.906,340.056l-0.935-0.633c-3.251-2.203-4.258-3.361-4.258-5.379c0-2.242,1.979-3.438,4.371-3.438
			c2.951,0,4.036,1.193,4.259,1.566c0.188,0.336,0.449,1.192,0.484,1.565c0.04,0.267,0.075,0.41,0.301,0.41
			c0.223,0.035,0.259-0.193,0.259-0.676c0-2.16,0.151-3.209,0.151-3.354c0-0.192-0.072-0.229-0.333-0.229
			c-0.266,0-0.524,0-1.162-0.148c-0.782-0.219-2.092-0.412-3.399-0.412c-4.332,0-7.283,2.242-7.283,5.98
			c0,2.201,1.155,4.145,4.707,6.801l1.494,1.117c2.914,2.168,4.145,3.252,4.145,5.529c0,2.389-1.682,4.223-4.93,4.223
			c-2.203,0-4.67-0.818-5.192-3.141c-0.113-0.443-0.113-0.894-0.113-1.156c0-0.262-0.11-0.373-0.299-0.373
			c-0.188,0-0.264,0.188-0.264,0.521c-0.038,0.523-0.184,1.798-0.184,3.363c0,0.855,0.037,0.974,0.482,1.197
			c1.346,0.639,3.253,0.865,4.783,0.865c1.796,0,3.85-0.229,5.233-1.132c2.35-1.524,3.061-3.545,3.061-5.416
			C158.285,344.994,156.904,342.787,152.906,340.056z"/>
		<path fill="#FFFFFF" d="M226.397,353.32c-0.335,0-0.825-0.031-1.309-0.186c-0.71-0.222-1.606-0.642-2.802-3.474
			c-2.017-4.825-7.285-17.934-7.882-19.28c-0.337-0.711-0.45-1.158-0.785-1.158c-0.226,0-0.376,0.188-0.784,1.233l-7.735,19.873
			c-0.635,1.604-1.271,2.728-2.764,2.921c-0.261,0.036-0.753,0.067-0.981,0.067c-0.145,0-0.295,0.117-0.295,0.269
			c0,0.188,0.222,0.268,0.633,0.268c1.351,0,2.995-0.113,3.332-0.113c0.376,0,2.169,0.113,2.955,0.113
			c0.296,0,0.483-0.076,0.483-0.268c0-0.148-0.075-0.269-0.339-0.269h-0.299c-0.56,0-1.12-0.223-1.12-0.854
			c0-0.558,0.189-1.347,0.489-2.134l1.868-5.079c0.075-0.183,0.186-0.259,0.335-0.259h7.583c0.19,0,0.229,0.037,0.299,0.187
			l2.952,7.285c0.229,0.521-0.109,0.787-0.297,0.854c-0.151,0.078-0.223,0.078-0.223,0.228c0,0.188,0.52,0.188,1.155,0.229
			c2.279,0.076,4.705,0.076,5.194,0.076c0.373,0,0.746-0.076,0.746-0.269C226.808,353.398,226.584,353.32,226.397,353.32z
			 M216.496,343.681h-6.649c-0.115,0-0.15-0.074-0.115-0.221l3.063-8.712c0.189-0.479,0.375-0.479,0.561,0l3.253,8.712
			C216.647,343.607,216.647,343.681,216.496,343.681z"/>
		<path fill="#FFFFFF" d="M171.748,353.32c-0.296,0-1.006-0.067-1.492-0.146c-0.973-0.15-1.082-0.748-1.199-1.685
			c-0.148-1.311-0.148-3.813-0.148-6.871v-5.604c0-4.938,0-5.832,0.04-6.84c0.072-1.121,0.262-1.564,1.156-1.756
			c0.376-0.072,0.597-0.072,0.821-0.072c0.112,0,0.268-0.146,0.268-0.262c0-0.188-0.155-0.267-0.526-0.267
			c-1.01,0-3.139,0.076-3.289,0.076c-0.187,0-2.24-0.076-3.326-0.076c-0.374,0-0.521,0.076-0.521,0.267
			c0,0.114,0.112,0.262,0.26,0.262c0.224,0,0.638,0.035,1.01,0.111c0.713,0.149,0.973,0.637,1.044,1.717
			c0.075,1.008,0.075,1.901,0.075,6.84v5.604c0,3.06-0.035,5.563-0.185,6.871c-0.111,0.937-0.223,1.531-0.861,1.685
			c-0.3,0.075-0.709,0.146-1.006,0.146c-0.189,0-0.263,0.148-0.263,0.269c0,0.188,0.185,0.268,0.523,0.268
			c1.008,0,3.063-0.113,3.249-0.113c0.15,0,2.279,0.113,4.109,0.113c0.373,0,0.522-0.119,0.522-0.268
			C172.011,353.469,171.937,353.32,171.748,353.32z"/>
		<path fill="#FFFFFF" d="M198.395,333.447c-3.884-3.92-9.904-3.627-13.188-3.627c-1.944,0-4.035,0.076-4.409,0.076
			c-0.186,0-2.318-0.076-3.812-0.076c-0.375,0-0.52,0.076-0.52,0.267c0,0.116,0.145,0.264,0.259,0.264
			c0.297,0,0.855,0.033,1.119,0.07c1.085,0.151,1.271,0.676,1.348,1.758c0.075,1.01,0.075,1.899,0.075,6.838v5.604
			c0,3.06,0,5.563-0.191,6.869c-0.146,0.937-0.22,1.533-0.856,1.687c-0.299,0.076-0.71,0.146-1.008,0.146
			c-0.188,0-0.262,0.148-0.262,0.269c0,0.188,0.186,0.268,0.522,0.268c0.523,0,1.307-0.037,1.979-0.078
			c0.672,0,1.269-0.043,1.346-0.043c0.146,0,1.271,0.084,2.687,0.195c1.423,0.072,3.178,0.186,4.601,0.186
			c5.604,0,8.556-2.207,9.973-3.668c1.831-1.871,3.549-4.932,3.549-8.932C201.605,337.746,200.038,335.091,198.395,333.447z
			 M195.813,350.035c-1.977,1.873-4.669,2.881-7.694,2.881c-3.885,0-5.041-0.676-5.454-1.271c-0.263-0.336-0.338-1.494-0.375-2.281
			c-0.036-0.6-0.036-3.553-0.036-6.908v-10.615c0-0.371,0.109-0.521,0.41-0.632c0.301-0.11,1.345-0.225,1.98-0.225
			c3.92,0,7.547,0.41,10.648,3.547c1.345,1.349,3.101,3.924,3.101,7.957C198.395,345.4,197.534,348.427,195.813,350.035z"/>
		<path fill="#FFFFFF" d="M29.386,325.603c-1.122,0-2.877,0.111-3.14,0.111c-0.224,0-2.28-0.111-3.962-0.111
			c-0.411,0-0.594,0.07-0.594,0.297c0,0.146,0.147,0.225,0.298,0.225c0.336,0,0.972,0.037,1.271,0.113
			c1.231,0.258,1.531,0.854,1.604,2.129c0.078,1.197,0.078,2.242,0.078,8.07v4.67c0,3.848-0.449,7.023-2.165,9.146
			c-1.348,1.61-3.59,2.698-5.871,2.698c-2.13,0-3.811-0.342-5.638-2.063c-1.607-1.529-2.804-3.846-2.804-9.228v-5.229
			c0-5.828,0-6.873,0.073-8.07c0.075-1.311,0.375-1.983,1.385-2.129c0.445-0.076,0.672-0.113,0.932-0.113
			c0.152,0,0.3-0.075,0.3-0.225c0-0.227-0.187-0.297-0.599-0.297c-1.12,0-3.362,0.111-3.697,0.111c-0.336,0-2.618-0.111-4.298-0.111
			c-0.409,0-0.597,0.07-0.597,0.297c0,0.146,0.15,0.225,0.298,0.225c0.335,0,0.972,0.037,1.272,0.113
			c1.229,0.258,1.529,0.854,1.604,2.129c0.077,1.197,0.077,2.242,0.077,8.07v5.457c0,5.451,1.417,8.063,3.25,9.817
			c2.649,2.513,6.424,2.664,7.694,2.664c2.209,0,5.011-0.375,7.698-2.77c2.989-2.654,3.436-7.143,3.436-11.176v-3.996
			c0-5.826,0-6.873,0.075-8.07c0.076-1.309,0.376-1.91,1.381-2.127c0.45-0.076,0.675-0.113,0.938-0.113c0.148,0,0.3-0.075,0.3-0.227
			C29.984,325.675,29.797,325.603,29.386,325.603z"/>
		<path fill="#FFFFFF" d="M69.572,353.32c-0.297,0-1.008-0.067-1.494-0.146c-0.971-0.15-1.085-0.748-1.193-1.685
			c-0.151-1.311-0.151-3.813-0.151-6.871v-5.604c0-4.938,0-5.832,0.037-6.84c0.079-1.121,0.263-1.564,1.157-1.756
			c0.377-0.072,0.602-0.072,0.825-0.072c0.111,0,0.26-0.146,0.26-0.262c0-0.188-0.148-0.267-0.523-0.267
			c-1.005,0-3.14,0.076-3.287,0.076c-0.188,0-2.241-0.076-3.322-0.076c-0.375,0-0.524,0.076-0.524,0.267
			c0,0.114,0.11,0.262,0.26,0.262c0.228,0,0.634,0.035,1.01,0.111c0.708,0.149,0.971,0.637,1.046,1.717
			c0.075,1.008,0.075,1.901,0.075,6.84v5.604c0,3.06-0.037,5.563-0.188,6.871c-0.112,0.937-0.227,1.531-0.859,1.685
			c-0.298,0.075-0.712,0.146-1.012,0.146c-0.183,0-0.26,0.148-0.26,0.269c0,0.188,0.187,0.268,0.52,0.268
			c1.012,0,3.066-0.113,3.254-0.113c0.146,0,2.281,0.113,4.109,0.113c0.377,0,0.521-0.119,0.521-0.268
			C69.835,353.469,69.761,353.32,69.572,353.32z"/>
		<path fill="#FFFFFF" d="M56.455,329.82c-1.35,0-2.43,0.076-2.804,0.076c-0.373,0-1.939-0.076-3.437-0.076
			c-0.371,0-0.638,0.037-0.638,0.229c0,0.104,0.04,0.299,0.267,0.299c0.257,0,1.006,0.035,1.604,0.146
			c1.008,0.193,1.196,0.898,1.232,2.955l0.335,15.914c-1.008-1.047-4.521-4.817-7.771-8.182c-5.08-5.232-9.859-10.314-10.382-10.834
			c-0.338-0.338-0.899-0.976-1.272-0.976c-0.26,0-0.447,0.336-0.447,1.609v18.189c0,2.879-0.114,3.739-0.932,3.961
			c-0.489,0.151-1.088,0.188-1.347,0.188c-0.15,0-0.263,0.117-0.263,0.269c0,0.229,0.186,0.268,0.521,0.268
			c1.494,0,2.877-0.113,3.178-0.113c0.298,0,1.605,0.113,3.477,0.113c0.371,0,0.595-0.078,0.595-0.268
			c0-0.148-0.114-0.269-0.262-0.269c-0.296,0-1.045-0.033-1.644-0.188c-0.897-0.222-1.197-1.011-1.27-3.619l-0.376-14.984
			c1.009,1.125,4.708,5.008,8.522,9.004c3.469,3.623,8.213,8.297,8.55,8.592c1.835,1.691,2.167,1.951,2.503,1.951
			c0.226,0,0.263-0.188,0.263-2.287l0.075-18.604c0-1.904,0.076-2.537,1.158-2.764c0.371-0.072,0.637-0.072,0.785-0.072
			c0.226,0,0.375-0.193,0.375-0.299C57.053,329.857,56.786,329.82,56.455,329.82z"/>
		<path fill="#FFFFFF" d="M237.08,329.82c-1.941,0-4.032,0.076-4.405,0.076c-0.188,0-2.319-0.076-3.815-0.076
			c-0.371,0-0.52,0.076-0.52,0.267c0,0.116,0.147,0.264,0.263,0.264c0.297,0,0.856,0.033,1.12,0.07
			c1.082,0.151,1.27,0.676,1.345,1.758c0.073,1.01,0.073,1.899,0.073,6.838v5.604c0,3.06,0,5.563-0.188,6.869
			c-0.147,0.937-0.223,1.533-0.857,1.687c-0.298,0.076-0.709,0.146-1.009,0.146c-0.187,0-0.26,0.148-0.26,0.269
			c0,0.188,0.186,0.268,0.522,0.268c0.523,0,1.307-0.037,1.976-0.078c0.678,0,1.273-0.043,1.352-0.043
			c0.146,0,1.267,0.084,2.686,0.195c1.423,0.072,3.176,0.186,4.601,0.186c5.6,0,8.554-2.207,9.975-3.668
			c1.829-1.871,3.546-4.932,3.546-8.932c0-3.771-1.567-6.424-3.213-8.066C246.384,329.527,240.369,329.82,237.08,329.82z
			 M247.694,350.035c-1.981,1.873-4.674,2.881-7.698,2.881c-3.886,0-5.042-0.676-5.452-1.271c-0.264-0.336-0.34-1.494-0.375-2.281
			c-0.04-0.6-0.04-3.553-0.04-6.908v-10.615c0-0.371,0.113-0.521,0.413-0.632c0.297-0.11,1.345-0.225,1.979-0.225
			c3.923,0,7.549,0.41,10.65,3.547c1.345,1.349,3.097,3.924,3.097,7.957C250.268,345.4,249.412,348.427,247.694,350.035z"/>
		<path fill="#FFFFFF" d="M114.264,349.548c-0.188,0-0.26,0.114-0.333,0.487c-0.191,1.271-0.64,1.83-1.499,2.203
			c-0.859,0.336-2.427,0.336-3.287,0.336c-3.249,0-3.846-0.408-3.923-2.539c-0.038-0.635,0-4.336,0-5.416v-2.653
			c0-0.119,0.037-0.224,0.228-0.224c0.557,0,4.069,0.039,4.966,0.152c1.271,0.143,1.569,0.516,1.682,0.969
			c0.148,0.41,0.148,0.742,0.148,1.045c0,0.185,0.077,0.302,0.223,0.302c0.226,0,0.301-0.339,0.301-0.604
			c0-0.219,0.074-1.414,0.15-2.053c0.074-1.049,0.26-1.564,0.26-1.76c0-0.187-0.074-0.259-0.187-0.259
			c-0.113,0-0.263,0.188-0.486,0.41c-0.333,0.34-0.82,0.369-1.606,0.443c-0.744,0.076-5.083,0.076-5.493,0.076
			c-0.185,0-0.185-0.109-0.185-0.334v-8.636c0-0.223,0.037-0.332,0.185-0.332c0.375,0,4.188,0.039,4.75,0.109
			c1.792,0.223,2.128,0.451,2.351,0.975c0.149,0.369,0.188,0.896,0.188,1.119c0,0.263,0.075,0.412,0.263,0.412
			c0.148,0,0.261-0.188,0.298-0.336c0.075-0.377,0.147-1.793,0.188-2.094c0.075-0.896,0.263-1.271,0.263-1.498
			c0-0.146-0.036-0.293-0.151-0.293c-0.151,0-0.299,0.104-0.447,0.146c-0.263,0.037-0.859,0.146-1.494,0.187
			c-0.744,0.037-7.62,0-7.845,0c-0.189,0-2.316-0.074-3.813-0.074c-0.37,0-0.52,0.074-0.52,0.266c0,0.117,0.147,0.265,0.259,0.265
			c0.3,0,0.859,0.033,1.12,0.069c1.083,0.152,1.271,0.677,1.347,1.759c0.075,1.008,0.075,1.899,0.075,6.838v5.604
			c0,3.06,0,5.563-0.188,6.869c-0.15,0.937-0.224,1.566-0.86,1.687c-0.297,0.036-0.708,0.146-1.01,0.146
			c-0.185,0-0.26,0.148-0.26,0.269c0,0.188,0.188,0.266,0.521,0.266c0.523,0,1.271-0.035,1.908-0.076
			c0.708-0.043,1.344-0.043,1.419-0.043c0.484,0,1.347,0,2.726,0.084c1.349,0.035,3.252,0.111,5.717,0.111
			c1.271,0,1.606,0,1.833-0.832c0.185-0.672,0.443-2.842,0.443-3.063C114.486,349.804,114.45,349.548,114.264,349.548z"/>
		<path fill="#FFFFFF" d="M142.834,353.32c-0.184,0-0.521,0-1.157-0.106c-0.822-0.113-1.904-0.414-3.663-2.205
			c-1.907-1.979-4.187-4.857-6.873-8.222c3.063-2.618,4.032-4.893,4.032-7.246c0-2.202-1.456-3.735-2.278-4.331
			c-1.716-1.199-4.036-1.39-6.127-1.39c-1.005,0-3.772,0.076-4.108,0.076c-0.187,0-2.39-0.076-3.887-0.076
			c-0.371,0-0.522,0.076-0.522,0.267c0,0.116,0.151,0.264,0.263,0.264c0.3,0,0.856,0.033,1.12,0.07
			c1.085,0.151,1.268,0.676,1.345,1.758c0.076,1.008,0.076,1.899,0.076,6.838v5.604c0,3.06,0,5.563-0.188,6.869
			c-0.147,0.937-0.223,1.533-0.861,1.687c-0.296,0.076-0.709,0.146-1.01,0.146c-0.183,0-0.259,0.148-0.259,0.269
			c0,0.188,0.19,0.268,0.522,0.268c1.012,0,3.215-0.113,3.252-0.113c0.149,0,2.241,0.113,4.031,0.113
			c0.379,0,0.526-0.121,0.526-0.268c0-0.117-0.038-0.269-0.26-0.269c-0.302,0-1.012-0.069-1.462-0.146
			c-1.007-0.15-1.19-0.75-1.307-1.687c-0.146-1.309-0.146-3.771-0.146-6.836v-0.744c0-0.188,0.07-0.26,0.224-0.26l4.184,0.07
			c0.224,0,0.3,0.037,0.445,0.188c0.715,0.857,2.169,2.912,3.552,4.636c1.866,2.387,3.066,3.92,4.482,4.668
			c0.825,0.45,1.645,0.643,3.512,0.643h2.059c0.595,0,0.784-0.076,0.784-0.268C143.135,353.469,143.02,353.32,142.834,353.32z
			 M130.204,342.039c-0.783,0.521-1.681,0.56-2.463,0.56c-1.459,0-3.139-0.219-3.624-0.48c-0.152-0.112-0.224-0.221-0.224-0.412
			v-10.2c0-0.185,0.106-0.293,0.262-0.371c0.335-0.076,1.381-0.188,2.351-0.188c3.514,0,5.681,2.285,5.681,6.242
			C132.186,339.609,131.327,341.287,130.204,342.039z"/>
		<path fill="#FFFFFF" d="M97.298,329.82c-0.973,0-2.394,0.076-2.579,0.076c-0.411,0-1.904-0.076-3.209-0.076
			c-0.525,0-0.75,0.076-0.75,0.267c0,0.146,0.188,0.264,0.373,0.264c0.378,0,0.749,0,1.124,0.109
			c0.336,0.112,0.444,0.405,0.444,0.672c0,0.266-0.146,0.707-0.297,1.198c-0.71,2.279-5.007,13.111-6.913,17.371l-6.202-15.991
			c-0.483-1.271-0.896-2.242-0.896-2.654c0-0.221,0.034-0.406,0.371-0.562c0.3-0.11,0.824-0.146,1.197-0.146
			c0.225,0,0.336-0.146,0.336-0.299c0-0.153-0.296-0.229-0.897-0.229c-1.268,0-2.726,0.074-3.063,0.074
			c-0.411,0-2.278-0.074-3.847-0.074c-0.534,0-0.867,0.037-0.867,0.229c0,0.104,0.077,0.299,0.264,0.299
			c0.186,0,0.752,0,1.274,0.108c1.082,0.259,1.534,0.597,2.279,2.396l8.068,19.465c0.637,1.537,0.861,1.947,1.234,1.947
			c0.333,0,0.524-0.486,1.421-2.396c0.747-1.567,2.203-5.004,4.225-9.645c1.681-3.881,3.285-7.691,3.658-8.59
			c0.858-2.168,1.384-2.613,1.833-2.918c0.597-0.367,1.344-0.367,1.567-0.367c0.259,0,0.374-0.146,0.374-0.299
			C97.819,329.896,97.634,329.82,97.298,329.82z"/>
		<path fill="#FFFFFF" d="M270.854,349.548c-0.191,0-0.266,0.114-0.338,0.487c-0.19,1.271-0.637,1.83-1.496,2.203
			c-0.858,0.336-2.426,0.336-3.286,0.336c-3.255,0-3.849-0.408-3.927-2.539c-0.035-0.635,0-4.336,0-5.416v-2.653
			c0-0.119,0.041-0.224,0.224-0.224c0.563,0,4.074,0.039,4.972,0.152c1.272,0.143,1.57,0.516,1.68,0.969
			c0.151,0.41,0.151,0.742,0.151,1.045c0,0.185,0.074,0.302,0.222,0.302c0.225,0,0.3-0.339,0.3-0.604
			c0-0.219,0.077-1.414,0.151-2.053c0.072-1.049,0.26-1.564,0.26-1.76c0-0.187-0.072-0.259-0.188-0.259
			c-0.109,0-0.261,0.188-0.484,0.41c-0.338,0.34-0.82,0.369-1.607,0.443c-0.749,0.076-5.081,0.076-5.493,0.076
			c-0.187,0-0.187-0.109-0.187-0.334v-8.636c0-0.223,0.039-0.332,0.187-0.332c0.373,0,4.187,0.039,4.745,0.109
			c1.795,0.223,2.133,0.451,2.355,0.975c0.148,0.369,0.185,0.896,0.185,1.119c0,0.263,0.075,0.412,0.263,0.412
			c0.151,0,0.264-0.188,0.299-0.336c0.075-0.377,0.15-1.793,0.185-2.094c0.077-0.896,0.266-1.271,0.266-1.498
			c0-0.146-0.038-0.293-0.149-0.293c-0.15,0-0.301,0.104-0.448,0.146c-0.263,0.037-0.86,0.146-1.495,0.187
			c-0.749,0.037-7.623,0-7.848,0c-0.188,0-2.317-0.074-3.81-0.074c-0.376,0-0.524,0.074-0.524,0.266
			c0,0.117,0.148,0.265,0.261,0.265c0.301,0,0.862,0.033,1.122,0.069c1.085,0.152,1.27,0.677,1.345,1.759
			c0.075,1.008,0.075,1.899,0.075,6.838v5.604c0,3.06,0,5.563-0.188,6.869c-0.147,0.937-0.224,1.566-0.858,1.687
			c-0.3,0.036-0.71,0.146-1.009,0.146c-0.187,0-0.263,0.148-0.263,0.269c0,0.188,0.188,0.266,0.522,0.266
			c0.523,0,1.271-0.035,1.904-0.076c0.713-0.043,1.348-0.043,1.422-0.043c0.482,0,1.343,0,2.728,0.084
			c1.347,0.035,3.252,0.111,5.716,0.111c1.27,0,1.606,0,1.829-0.832c0.191-0.672,0.451-2.842,0.451-3.063
			C271.075,349.804,271.037,349.548,270.854,349.548z"/>
		<path fill="#FFFFFF" d="M530.61,337.818L529.563,337c-3.582-2.805-4.561-4.145-4.561-6.282c0-2.729,2.021-4.334,4.597-4.334
			c3.438,0,4.444,1.575,4.673,1.983c0.227,0.41,0.447,1.42,0.482,1.863c0.043,0.303,0.076,0.484,0.3,0.484
			c0.187,0,0.263-0.259,0.263-0.857c0-2.535,0.148-3.771,0.148-3.957c0-0.186-0.073-0.262-0.375-0.262
			c-0.293,0-0.596-0.035-1.307-0.188c-0.935-0.223-2.019-0.368-3.474-0.368c-4.748,0-7.737,2.727-7.737,6.723
			c0,2.539,0.897,4.854,4.86,8.106l1.681,1.375c3.215,2.654,4.297,4.154,4.297,6.728c0,2.396-1.752,4.975-5.342,4.975
			c-2.506,0-4.968-1.049-5.527-3.813c-0.112-0.521-0.112-1.043-0.112-1.381c0-0.295-0.039-0.41-0.265-0.41
			c-0.186,0-0.26,0.188-0.297,0.6c-0.041,0.594-0.188,2.094-0.188,3.955c0,1.018,0.034,1.16,0.562,1.42
			c1.535,0.756,3.254,1.021,5.008,1.021c2.019,0,4.037-0.449,5.644-1.58c2.575-1.83,3.181-4.666,3.181-6.201
			C536.069,343.607,535.019,341.287,530.61,337.818z"/>
		<path fill="#FFFFFF" d="M575.474,329.373c-9.077,0-13.043,7.285-13.043,12.408c0,5.717,3.851,12.482,12.858,12.482
			c7.918,0,13.185-5.875,13.185-12.979C588.474,333.898,582.869,329.373,575.474,329.373z M576.22,352.955
			c-5.94,0-10.386-4.639-10.386-12.036c0-6.908,3.959-10.347,9.455-10.347c5.191,0,9.822,3.998,9.822,11.619
			C585.112,351.373,579.172,352.955,576.22,352.955z"/>
		<path fill="#FFFFFF" d="M562.313,353.32c-0.337,0-0.822-0.031-1.313-0.186c-0.709-0.222-1.604-0.642-2.799-3.474
			c-2.021-4.825-7.287-17.934-7.883-19.28c-0.338-0.711-0.449-1.158-0.789-1.158c-0.222,0-0.373,0.188-0.779,1.233l-7.735,19.873
			c-0.636,1.604-1.271,2.728-2.767,2.921c-0.26,0.036-0.754,0.067-0.979,0.067c-0.146,0-0.297,0.117-0.297,0.269
			c0,0.188,0.228,0.268,0.636,0.268c1.352,0,2.995-0.113,3.334-0.113c0.37,0,2.164,0.113,2.95,0.113
			c0.298,0,0.481-0.076,0.481-0.268c0-0.148-0.072-0.269-0.334-0.269h-0.297c-0.564,0-1.121-0.223-1.121-0.854
			c0-0.558,0.183-1.347,0.482-2.134l1.864-5.079c0.071-0.183,0.188-0.259,0.338-0.259h7.582c0.188,0,0.229,0.037,0.306,0.187
			l2.95,7.285c0.224,0.521-0.108,0.787-0.299,0.854c-0.151,0.078-0.229,0.078-0.229,0.228c0,0.188,0.524,0.188,1.158,0.229
			c2.277,0.076,4.709,0.076,5.193,0.076c0.373,0,0.75-0.076,0.75-0.269C562.726,353.398,562.498,353.32,562.313,353.32z
			 M552.41,343.681h-6.65c-0.109,0-0.15-0.074-0.109-0.221l3.063-8.712c0.186-0.479,0.375-0.479,0.561,0l3.256,8.712
			C552.56,343.607,552.56,343.681,552.41,343.681z"/>
		<path fill="#FFFFFF" d="M323.867,349.548c-0.187,0-0.262,0.114-0.338,0.487c-0.187,1.271-0.636,1.83-1.492,2.203
			c-0.856,0.336-2.43,0.336-3.291,0.336c-3.248,0-3.846-0.408-3.922-2.539c-0.039-0.635,0-4.336,0-5.416v-2.653
			c0-0.119,0.041-0.224,0.225-0.224c0.562,0,4.072,0.039,4.972,0.152c1.268,0.143,1.565,0.516,1.68,0.969
			c0.15,0.41,0.15,0.742,0.15,1.045c0,0.185,0.071,0.302,0.225,0.302c0.227,0,0.297-0.339,0.297-0.604
			c0-0.219,0.076-1.414,0.152-2.053c0.072-1.049,0.26-1.564,0.26-1.76c0-0.187-0.076-0.259-0.188-0.259
			c-0.112,0-0.261,0.188-0.486,0.41c-0.332,0.34-0.822,0.369-1.604,0.443c-0.747,0.076-5.079,0.076-5.493,0.076
			c-0.188,0-0.188-0.109-0.188-0.334v-8.636c0-0.223,0.041-0.332,0.188-0.332c0.371,0,4.186,0.039,4.746,0.109
			c1.791,0.223,2.13,0.451,2.352,0.975c0.15,0.369,0.189,0.896,0.189,1.119c0,0.263,0.071,0.412,0.26,0.412
			c0.147,0,0.264-0.188,0.303-0.336c0.072-0.377,0.146-1.793,0.186-2.094c0.074-0.896,0.26-1.271,0.26-1.498
			c0-0.146-0.036-0.293-0.146-0.293c-0.152,0-0.299,0.104-0.453,0.146c-0.26,0.037-0.856,0.146-1.49,0.187
			c-0.75,0.037-7.623,0-7.85,0c-0.188,0-2.315-0.074-3.813-0.074c-0.371,0-0.523,0.074-0.523,0.266c0,0.117,0.152,0.265,0.261,0.265
			c0.302,0,0.86,0.033,1.122,0.069c1.085,0.152,1.273,0.677,1.351,1.759c0.068,1.008,0.068,1.899,0.068,6.838v5.604
			c0,3.06,0,5.563-0.183,6.869c-0.15,0.937-0.227,1.566-0.859,1.687c-0.299,0.036-0.711,0.146-1.01,0.146
			c-0.188,0-0.262,0.148-0.262,0.269c0,0.188,0.188,0.266,0.521,0.266c0.522,0,1.271-0.035,1.905-0.076
			c0.713-0.043,1.346-0.043,1.42-0.043c0.484,0,1.345,0,2.729,0.084c1.345,0.035,3.249,0.111,5.714,0.111
			c1.271,0,1.609,0,1.834-0.832c0.184-0.672,0.446-2.842,0.446-3.063C324.093,349.804,324.056,349.548,323.867,349.548z"/>
		<path fill="#FFFFFF" d="M337.037,329.82c-1.939,0-4.034,0.076-4.408,0.076c-0.186,0-2.313-0.076-3.811-0.076
			c-0.373,0-0.527,0.076-0.527,0.267c0,0.116,0.154,0.264,0.265,0.264c0.297,0,0.856,0.033,1.121,0.07
			c1.084,0.151,1.271,0.676,1.35,1.758c0.07,1.01,0.07,1.899,0.07,6.838v5.604c0,3.06,0,5.563-0.188,6.869
			c-0.149,0.937-0.221,1.533-0.858,1.687c-0.296,0.076-0.709,0.146-1.009,0.146c-0.188,0-0.26,0.148-0.26,0.269
			c0,0.188,0.185,0.268,0.521,0.268c0.522,0,1.309-0.037,1.981-0.078c0.67,0,1.271-0.043,1.345-0.043
			c0.149,0,1.269,0.084,2.69,0.195c1.418,0.072,3.174,0.186,4.596,0.186c5.604,0,8.558-2.207,9.974-3.668
			c1.83-1.871,3.549-4.932,3.549-8.932c0-3.771-1.57-6.424-3.211-8.066C346.342,329.527,340.324,329.82,337.037,329.82z
			 M347.649,350.035c-1.98,1.873-4.668,2.881-7.695,2.881c-3.883,0-5.045-0.676-5.455-1.271c-0.264-0.336-0.338-1.494-0.375-2.281
			c-0.036-0.6-0.036-3.553-0.036-6.908v-10.615c0-0.371,0.112-0.521,0.409-0.632c0.3-0.11,1.345-0.225,1.979-0.225
			c3.924,0,7.549,0.41,10.647,3.547c1.35,1.349,3.104,3.924,3.104,7.957C350.228,345.4,349.367,348.427,347.649,350.035z"/>
		<path fill="#FFFFFF" d="M306.098,325.302c-0.147,0-0.293,0.146-0.52,0.225c-0.336,0.146-0.938,0.146-1.646,0.188
			c-0.859,0.03-8.44,0.071-9.191,0.03l-1.531-0.071c-0.818-0.035-1.828-0.035-2.689-0.035c-0.41,0-0.596,0.076-0.596,0.297
			c0,0.148,0.148,0.227,0.299,0.227c0.338-0.036,0.972,0,1.271,0.076c1.233,0.258,1.531,0.854,1.604,2.129
			c0.074,1.197,0.074,2.242,0.074,8.07v6.574c0,3.584,0,6.533-0.187,8.104c-0.146,1.084-0.335,1.904-1.081,2.058
			c-0.335,0.075-0.785,0.146-1.122,0.146c-0.224,0-0.298,0.117-0.298,0.228c0,0.229,0.184,0.309,0.594,0.309
			c1.121,0,3.475-0.113,3.661-0.113c0.19,0,2.546,0.113,4.597,0.113c0.41,0,0.601-0.121,0.601-0.309c0-0.107-0.078-0.228-0.3-0.228
			c-0.338,0-1.158-0.07-1.683-0.146c-1.12-0.15-1.343-0.974-1.456-2.058c-0.187-1.571-0.187-4.521-0.187-8.104v-3.179
			c0-0.26,0.075-0.336,0.263-0.336c0.635,0,4.707,0,5.637,0.109c1.16,0.148,1.756,0.824,1.945,1.348
			c0.148,0.451,0.188,0.97,0.223,1.349c0,0.186,0.077,0.332,0.26,0.332c0.266,0,0.266-0.371,0.266-0.711
			c0-0.261,0.072-1.759,0.148-2.5c0.109-1.232,0.3-1.867,0.3-2.091c0-0.184-0.038-0.297-0.189-0.297
			c-0.147,0-0.258,0.185-0.409,0.369c-0.336,0.484-0.822,0.599-1.72,0.666c-0.521,0.047-1.044,0.047-1.679,0.047l-4.779,0.029
			c-0.229,0-0.263-0.105-0.263-0.332v-10.275c0-0.295,0.11-0.407,0.333-0.407l5.754,0.112c1.458,0.037,2.316,0.699,2.54,1.187
			s0.336,1.117,0.336,1.414c0,0.264,0.077,0.449,0.26,0.449c0.191,0,0.269-0.224,0.302-0.412c0.076-0.476,0.152-2.113,0.189-2.484
			c0.109-1.049,0.298-1.498,0.298-1.76C306.324,325.451,306.25,325.302,306.098,325.302z"/>
		<path fill="#FFFFFF" d="M441.91,349.4c-0.188,0-0.297,0.188-0.342,0.404c-0.107,0.641-0.371,1.313-0.779,1.803
			c-0.787,0.937-2.242,0.969-3.965,0.969c-2.572,0-3.847-0.223-4.369-0.746c-0.596-0.563-0.672-2.469-0.672-7.137v-5.68
			c0-4.938,0-5.83,0.037-6.838c0.076-1.123,0.266-1.604,1.232-1.795c0.375-0.033,0.859-0.076,1.084-0.076
			c0.113,0,0.264-0.104,0.264-0.222c0-0.188-0.188-0.266-0.523-0.266c-1.01,0-3.475,0.076-3.625,0.076
			c-0.188,0-2.239-0.076-3.737-0.076c-0.368,0-0.521,0.076-0.521,0.266c0,0.117,0.152,0.265,0.264,0.265
			c0.302,0,0.859,0.033,1.119,0.07c1.088,0.151,1.273,0.676,1.352,1.758c0.068,1.008,0.068,1.899,0.068,6.838v5.604
			c0,3.06,0,5.563-0.188,6.869c-0.146,0.937-0.222,1.533-0.855,1.687c-0.301,0.075-0.711,0.146-1.014,0.146
			c-0.185,0-0.256,0.148-0.256,0.269c0,0.188,0.182,0.268,0.52,0.268c0.523,0,1.232-0.037,1.902-0.078
			c0.637-0.043,1.196-0.043,1.348-0.043c0.974,0,2.091,0.043,3.591,0.084c1.528,0.068,3.358,0.111,5.713,0.111
			c1.759,0,1.869-0.111,2.091-0.871c0.268-0.934,0.48-2.838,0.48-3.176C442.127,349.548,442.06,349.4,441.91,349.4z"/>
		<path fill="#FFFFFF" d="M424.049,353.32c-0.338,0-0.821-0.031-1.313-0.186c-0.705-0.222-1.605-0.642-2.798-3.474
			c-2.021-4.825-7.287-17.934-7.883-19.28c-0.339-0.711-0.449-1.158-0.789-1.158c-0.22,0-0.373,0.188-0.778,1.233l-7.736,19.873
			c-0.635,1.604-1.271,2.728-2.767,2.921c-0.258,0.036-0.735,0.065-0.965,0.067c-0.188,0-0.521-0.002-1.142-0.106
			c-0.821-0.113-1.901-0.414-3.664-2.205c-1.899-1.979-4.184-4.857-6.87-8.222c3.063-2.618,4.032-4.895,4.032-7.246
			c0-2.202-1.457-3.735-2.278-4.332c-1.72-1.198-4.035-1.389-6.125-1.389c-1.013,0-3.774,0.074-4.113,0.074
			c-0.188,0-2.389-0.074-3.883-0.074c-0.373,0-0.521,0.074-0.521,0.267c0,0.116,0.147,0.264,0.261,0.264
			c0.299,0,0.854,0.033,1.118,0.07c1.086,0.151,1.271,0.676,1.347,1.758c0.075,1.008,0.075,1.899,0.075,6.838v5.604
			c0,3.06,0,5.563-0.188,6.869c-0.148,0.937-0.224,1.531-0.861,1.687c-0.295,0.076-0.709,0.146-1.01,0.146
			c-0.185,0-0.259,0.148-0.259,0.269c0,0.188,0.188,0.266,0.521,0.266c1.013,0,3.213-0.111,3.254-0.111
			c0.146,0,2.24,0.111,4.031,0.111c0.375,0,0.524-0.119,0.524-0.266c0-0.117-0.039-0.269-0.26-0.269
			c-0.306,0-1.011-0.069-1.462-0.146c-1.012-0.15-1.19-0.75-1.307-1.687c-0.146-1.309-0.146-3.771-0.146-6.836v-0.742
			c0-0.188,0.068-0.26,0.223-0.26l4.186,0.07c0.225,0,0.303,0.037,0.445,0.188c0.711,0.857,2.168,2.912,3.551,4.636
			c1.867,2.387,3.066,3.92,4.482,4.668c0.824,0.45,1.646,0.643,3.514,0.643h2.059c0.225,0,0.375-0.018,0.494-0.037
			c0.092,0.012,0.166,0.037,0.295,0.037c1.35,0,2.994-0.113,3.33-0.113c0.375,0,2.172,0.113,2.951,0.113
			c0.305,0,0.484-0.076,0.484-0.268c0-0.148-0.068-0.269-0.332-0.269h-0.297c-0.563,0-1.125-0.223-1.125-0.854
			c0-0.558,0.184-1.347,0.484-2.134l1.863-5.079c0.076-0.183,0.191-0.259,0.34-0.259h7.582c0.189,0,0.229,0.037,0.307,0.187
			l2.945,7.285c0.229,0.521-0.107,0.787-0.299,0.854c-0.148,0.078-0.225,0.078-0.225,0.228c0,0.188,0.521,0.188,1.158,0.229
			c2.275,0.076,4.708,0.076,5.191,0.076c0.373,0,0.752-0.076,0.752-0.268C424.463,353.398,424.235,353.32,424.049,353.32z
			 M386.412,342.039c-0.787,0.521-1.687,0.56-2.47,0.56c-1.457,0-3.137-0.219-3.623-0.48c-0.151-0.112-0.223-0.221-0.223-0.412
			v-10.2c0-0.185,0.106-0.293,0.262-0.371c0.336-0.076,1.382-0.188,2.351-0.188c3.517,0,5.685,2.285,5.685,6.242
			C388.392,339.609,387.531,341.287,386.412,342.039z M414.147,343.681h-6.648c-0.113,0-0.156-0.074-0.113-0.221l3.064-8.712
			c0.184-0.479,0.375-0.479,0.559,0l3.258,8.712C414.297,343.607,414.297,343.681,414.147,343.681z"/>
		<path fill="#FFFFFF" d="M369.92,349.548c-0.185,0-0.262,0.114-0.334,0.487c-0.185,1.271-0.637,1.83-1.496,2.203
			c-0.854,0.336-2.432,0.336-3.286,0.336c-3.247,0-3.847-0.408-3.922-2.539c-0.037-0.635,0-4.336,0-5.416v-2.653
			c0-0.119,0.035-0.224,0.227-0.224c0.561,0,4.07,0.039,4.969,0.152c1.266,0.143,1.567,0.516,1.682,0.969
			c0.146,0.41,0.146,0.742,0.146,1.045c0,0.185,0.076,0.302,0.229,0.302c0.228,0,0.3-0.339,0.3-0.604
			c0-0.219,0.073-1.414,0.146-2.053c0.078-1.049,0.267-1.564,0.267-1.76c0-0.187-0.074-0.259-0.188-0.259
			c-0.115,0-0.264,0.188-0.482,0.41c-0.342,0.34-0.824,0.369-1.605,0.443c-0.748,0.076-5.083,0.076-5.492,0.076
			c-0.188,0-0.188-0.109-0.188-0.334v-8.636c0-0.223,0.034-0.332,0.188-0.332c0.373,0,4.182,0.039,4.744,0.109
			c1.795,0.223,2.131,0.451,2.354,0.975c0.146,0.369,0.189,0.896,0.189,1.119c0,0.263,0.072,0.412,0.256,0.412
			c0.15,0,0.264-0.188,0.303-0.336c0.074-0.377,0.148-1.793,0.186-2.094c0.076-0.896,0.264-1.271,0.264-1.498
			c0-0.146-0.037-0.293-0.148-0.293c-0.146,0-0.299,0.104-0.447,0.146c-0.26,0.037-0.863,0.146-1.496,0.187
			c-0.744,0.037-7.623,0-7.843,0c-0.188,0-2.315-0.074-3.813-0.074c-0.375,0-0.521,0.074-0.521,0.266
			c0,0.117,0.146,0.265,0.259,0.265c0.301,0,0.861,0.033,1.123,0.069c1.082,0.152,1.272,0.677,1.34,1.759
			c0.078,1.008,0.078,1.899,0.078,6.838v5.604c0,3.06,0,5.563-0.185,6.869c-0.15,0.937-0.229,1.566-0.861,1.687
			c-0.298,0.036-0.708,0.146-1.01,0.146c-0.186,0-0.262,0.148-0.262,0.269c0,0.188,0.189,0.266,0.527,0.266
			c0.521,0,1.268-0.035,1.904-0.076c0.706-0.043,1.34-0.043,1.419-0.043c0.484,0,1.341,0,2.728,0.084
			c1.342,0.035,3.25,0.111,5.719,0.111c1.268,0,1.607,0,1.828-0.832c0.188-0.672,0.445-2.842,0.445-3.063
			C370.146,349.804,370.114,349.548,369.92,349.548z"/>
		<path fill="#FFFFFF" d="M469.724,329.82c-1.94,0-4.032,0.076-4.407,0.076c-0.188,0-2.316-0.076-3.811-0.076
			c-0.377,0-0.525,0.076-0.525,0.267c0,0.116,0.148,0.264,0.26,0.264c0.299,0,0.86,0.033,1.125,0.07
			c1.082,0.151,1.27,0.676,1.346,1.758c0.07,1.01,0.07,1.899,0.07,6.838v5.604c0,3.06,0,5.563-0.187,6.869
			c-0.147,0.937-0.222,1.533-0.856,1.687c-0.299,0.076-0.709,0.146-1.008,0.146c-0.191,0-0.265,0.148-0.265,0.269
			c0,0.188,0.188,0.268,0.521,0.268c0.522,0,1.309-0.037,1.981-0.078c0.672,0,1.271-0.043,1.345-0.043
			c0.146,0,1.27,0.084,2.688,0.195c1.422,0.072,3.179,0.186,4.603,0.186c5.601,0,8.554-2.207,9.974-3.668
			c1.83-1.871,3.549-4.932,3.549-8.932c0-3.771-1.569-6.424-3.211-8.066C479.026,329.527,473.011,329.82,469.724,329.82z
			 M480.332,350.035c-1.979,1.873-4.67,2.881-7.697,2.881c-3.881,0-5.043-0.676-5.452-1.271c-0.263-0.336-0.334-1.494-0.368-2.281
			c-0.039-0.6-0.039-3.553-0.039-6.908v-10.615c0-0.371,0.105-0.521,0.407-0.632c0.304-0.11,1.345-0.225,1.979-0.225
			c3.924,0,7.551,0.41,10.65,3.547c1.346,1.349,3.102,3.924,3.102,7.957C482.912,345.4,482.052,348.427,480.332,350.035z"/>
		<path fill="#FFFFFF" d="M502.604,349.548c-0.185,0-0.26,0.114-0.336,0.487c-0.185,1.271-0.64,1.83-1.489,2.203
			c-0.857,0.336-2.435,0.336-3.289,0.336c-3.246,0-3.849-0.408-3.92-2.539c-0.039-0.635,0-4.336,0-5.416v-2.653
			c0-0.119,0.032-0.224,0.225-0.224c0.56,0,4.066,0.039,4.97,0.152c1.267,0.143,1.565,0.516,1.683,0.969
			c0.145,0.41,0.145,0.742,0.145,1.045c0,0.185,0.076,0.302,0.229,0.302c0.225,0,0.301-0.339,0.301-0.604
			c0-0.219,0.072-1.414,0.146-2.053c0.076-1.049,0.267-1.564,0.267-1.76c0-0.187-0.076-0.259-0.189-0.259
			c-0.111,0-0.262,0.188-0.482,0.41c-0.34,0.34-0.826,0.369-1.605,0.443c-0.75,0.076-5.082,0.076-5.493,0.076
			c-0.185,0-0.185-0.109-0.185-0.334v-8.636c0-0.223,0.033-0.332,0.185-0.332c0.375,0,4.185,0.039,4.743,0.109
			c1.793,0.223,2.13,0.451,2.355,0.975c0.146,0.369,0.188,0.896,0.188,1.119c0,0.263,0.076,0.412,0.259,0.412
			c0.151,0,0.267-0.188,0.304-0.336c0.078-0.377,0.146-1.793,0.186-2.094c0.074-0.896,0.26-1.271,0.26-1.498
			c0-0.146-0.033-0.293-0.146-0.293c-0.148,0-0.297,0.104-0.445,0.146c-0.262,0.037-0.862,0.146-1.5,0.187
			c-0.742,0.037-7.619,0-7.842,0c-0.188,0-2.313-0.074-3.812-0.074c-0.375,0-0.521,0.074-0.521,0.266
			c0,0.117,0.146,0.265,0.26,0.265c0.3,0,0.859,0.033,1.123,0.069c1.082,0.152,1.271,0.677,1.338,1.759
			c0.078,1.008,0.078,1.899,0.078,6.838v5.604c0,3.06,0,5.563-0.182,6.869c-0.152,0.937-0.229,1.566-0.865,1.687
			c-0.297,0.036-0.707,0.146-1.01,0.146c-0.188,0-0.258,0.148-0.258,0.269c0,0.188,0.188,0.266,0.523,0.266
			c0.521,0,1.271-0.035,1.904-0.076c0.707-0.043,1.342-0.043,1.418-0.043c0.486,0,1.344,0,2.729,0.084
			c1.341,0.035,3.252,0.111,5.72,0.111c1.264,0,1.604,0,1.825-0.832c0.188-0.672,0.444-2.842,0.444-3.063
			C502.828,349.804,502.797,349.548,502.604,349.548z"/>
		<path fill="#FFFFFF" d="M616.289,340.433c-0.778,0-1.004,0.035-1.004,0.34c0,0.184,0.225,0.258,0.406,0.258
			c0.188,0.039,0.598,0.039,0.784,0.039c5.308,0,9.188-3.586,9.188-8.895c0-1.976-1.045-3.658-1.861-4.445
			c-0.596-0.561-2.28-2.127-6.95-2.127c-1.72,0-3.886,0.111-4.707,0.111c-0.295,0-2.538-0.111-4.226-0.111
			c-0.409,0-0.598,0.07-0.598,0.297c0,0.146,0.146,0.225,0.303,0.225c0.334,0,0.969,0.037,1.271,0.113
			c1.229,0.258,1.53,0.854,1.604,2.129c0.074,1.197,0.074,2.242,0.074,8.07v6.574c0,3.584,0,6.533-0.188,8.104
			c-0.146,1.084-0.34,1.904-1.084,2.058c-0.336,0.076-0.786,0.146-1.125,0.146c-0.223,0-0.301,0.117-0.301,0.228
			c0,0.229,0.195,0.309,0.604,0.309c1.123,0,3.474-0.113,3.586-0.113c0.185,0,2.537,0.113,4.597,0.113
			c0.412,0,0.594-0.121,0.594-0.309c0-0.107-0.065-0.228-0.299-0.228c-0.33,0-1.156-0.069-1.676-0.146
			c-1.123-0.15-1.347-0.974-1.459-2.058c-0.189-1.571-0.189-4.521-0.189-8.104v-15.357c0-0.369,0.08-0.637,0.304-0.709
			c0.336-0.146,0.972-0.225,1.606-0.225c0.854,0,3.138-0.148,5.115,1.867c1.979,2.021,2.094,4.521,2.094,5.754
			C622.756,337.781,619.916,340.433,616.289,340.433z"/>
		<path fill="#FFFFFF" d="M707.873,329.373c-9.082,0-13.043,7.285-13.043,12.408c0,5.717,3.853,12.482,12.854,12.482
			c7.922,0,13.188-5.875,13.188-12.979C720.871,333.898,715.267,329.373,707.873,329.373z M708.615,352.955
			c-5.938,0-10.388-4.639-10.388-12.036c0-6.908,3.966-10.347,9.453-10.347c5.192,0,9.823,3.998,9.823,11.619
			C717.506,351.373,711.569,352.955,708.615,352.955z"/>
		<path fill="#FFFFFF" d="M692.955,349.4c-0.182,0-0.299,0.188-0.332,0.404c-0.114,0.641-0.379,1.313-0.785,1.803
			c-0.788,0.937-2.245,0.969-3.965,0.969c-2.576,0-3.846-0.223-4.369-0.746c-0.598-0.563-0.674-2.469-0.674-7.137v-5.68
			c0-4.938,0-5.83,0.037-6.838c0.078-1.123,0.262-1.604,1.236-1.795c0.37-0.033,0.854-0.076,1.081-0.076
			c0.108,0,0.263-0.104,0.263-0.222c0-0.188-0.188-0.266-0.521-0.266c-1.015,0-3.476,0.076-3.621,0.076
			c-0.192,0-2.244-0.076-3.737-0.076c-0.377,0-0.525,0.076-0.525,0.266c0,0.117,0.148,0.265,0.269,0.265
			c0.296,0,0.854,0.033,1.117,0.07c1.081,0.151,1.269,0.676,1.347,1.758c0.077,1.008,0.077,1.899,0.077,6.838v5.604
			c0,3.06,0,5.563-0.192,6.869c-0.147,0.937-0.224,1.533-0.861,1.687c-0.295,0.075-0.704,0.146-1.006,0.146
			c-0.186,0-0.258,0.148-0.258,0.269c0,0.188,0.183,0.268,0.521,0.268c0.524,0,1.231-0.037,1.905-0.078
			c0.636-0.043,1.193-0.043,1.352-0.043c0.969,0,2.09,0.043,3.586,0.084c1.528,0.068,3.354,0.111,5.717,0.111
			c1.754,0,1.862-0.111,2.092-0.871c0.258-0.934,0.486-2.838,0.486-3.176C693.185,349.548,693.106,349.4,692.955,349.4z"/>
		<path fill="#FFFFFF" d="M673.104,329.82c-0.972,0-2.536,0.076-2.765,0.076c-0.188,0-2.09-0.076-3.547-0.076
			c-0.377,0-0.524,0.076-0.524,0.267c0,0.116,0.11,0.264,0.261,0.264c0.303,0,0.864,0.033,1.121,0.07
			c1.084,0.151,1.271,0.748,1.311,1.758s0.076,1.899,0.076,6.838v3.998c0,3.248-0.342,5.865-1.873,7.697
			c-1.117,1.342-3.063,2.243-5.078,2.243c-1.871,0-3.285-0.27-4.893-1.723c-1.425-1.273-2.431-3.182-2.431-7.771v-4.447
			c0-4.938,0-5.83,0.071-6.838c0.072-1.047,0.261-1.604,1.121-1.758c0.408-0.07,0.601-0.07,0.817-0.07
			c0.155,0,0.302-0.146,0.302-0.265c0-0.188-0.187-0.266-0.56-0.266c-0.974,0-3.026,0.076-3.324,0.076
			c-0.306,0-2.28-0.076-3.771-0.076c-0.377,0-0.524,0.076-0.524,0.266c0,0.117,0.147,0.265,0.261,0.265
			c0.299,0,0.856,0.033,1.125,0.07c1.08,0.151,1.268,0.747,1.342,1.758c0.076,1.008,0.076,1.899,0.076,6.838v4.668
			c0,4.635,1.27,6.84,2.873,8.33c2.314,2.178,5.758,2.252,6.838,2.252c1.944,0,4.481-0.262,6.875-2.328
			c2.619-2.234,3.061-6.088,3.061-9.523v-3.396c0-4.938-0.03-5.832,0.041-6.84c0.076-1.045,0.266-1.564,1.158-1.756
			c0.412-0.072,0.603-0.072,0.824-0.072c0.149,0,0.26-0.146,0.26-0.262C673.627,329.896,673.481,329.82,673.104,329.82z"/>
		<path fill="#FFFFFF" d="M649.519,353.32c-0.334,0-0.819-0.031-1.306-0.186c-0.711-0.222-1.61-0.642-2.801-3.474
			c-2.021-4.825-7.293-17.934-7.892-19.28c-0.334-0.711-0.444-1.158-0.782-1.158c-0.224,0-0.373,0.188-0.783,1.233l-7.736,19.873
			c-0.635,1.604-1.271,2.728-2.76,2.921c-0.264,0.036-0.754,0.067-0.979,0.067c-0.149,0-0.304,0.117-0.304,0.269
			c0,0.188,0.229,0.268,0.64,0.268c1.353,0,2.994-0.113,3.328-0.113c0.377,0,2.164,0.113,2.952,0.113
			c0.302,0,0.484-0.076,0.484-0.268c0-0.148-0.076-0.269-0.332-0.269h-0.307c-0.563,0-1.117-0.223-1.117-0.854
			c0-0.558,0.188-1.347,0.481-2.134l1.87-5.079c0.074-0.183,0.188-0.259,0.341-0.259h7.582c0.188,0,0.222,0.037,0.297,0.187
			l2.951,7.285c0.229,0.521-0.11,0.787-0.3,0.854c-0.146,0.078-0.225,0.078-0.225,0.228c0,0.188,0.521,0.188,1.159,0.229
			c2.274,0.076,4.707,0.076,5.194,0.076c0.371,0,0.74-0.076,0.74-0.269C649.927,353.398,649.701,353.32,649.519,353.32z
			 M639.614,343.681h-6.646c-0.111,0-0.146-0.074-0.111-0.221l3.063-8.712c0.189-0.479,0.379-0.479,0.563,0l3.256,8.712
			C639.763,343.607,639.763,343.681,639.614,343.681z"/>
	</g>
	<g>
		<path fill="#FFFFFF" d="M340.476,79.46c-0.93,0-3.187-0.206-4.621-0.407c-3.078-0.411-3.697-2.667-4.003-5.643
			c-0.513-4.309-0.513-12.414-0.513-22.265V33.093c0-16.005,0-18.876,0.208-22.161c0.201-3.589,1.021-5.334,3.794-5.844
			c1.231-0.208,1.848-0.313,2.563-0.313c0.408,0,0.822-0.205,0.822-0.613c0-0.614-0.516-0.823-1.644-0.823
			c-3.08,0-9.542,0.311-10.057,0.311c-0.509,0-6.971-0.311-10.359-0.311c-1.129,0-1.641,0.209-1.641,0.823
			c0,0.408,0.41,0.613,0.821,0.613c0.716,0,2.054,0.104,3.181,0.412c2.256,0.516,3.281,2.254,3.485,5.742
			c0.207,3.284,0.207,6.155,0.207,22.161v18.054c0,9.851,0,17.956-0.516,22.265c-0.411,2.977-0.922,5.229-2.973,5.642
			c-0.925,0.202-2.156,0.408-3.078,0.408c-0.619,0-0.822,0.309-0.822,0.616c0,0.633,0.516,0.838,1.646,0.838
			c3.078,0,9.541-0.308,10.049-0.308c0.514,0,6.977,0.308,12.621,0.308c1.129,0,1.643-0.327,1.643-0.838
			C341.291,79.766,341.085,79.46,340.476,79.46z"/>
		<path fill="#FFFFFF" d="M405.896,2.519c-0.41,0-0.821,0.412-1.438,0.617c-0.929,0.409-2.562,0.409-4.515,0.511
			c-2.356,0.104-23.188,0.208-25.235,0.104L370.5,3.548c-2.256-0.105-5.026-0.105-7.381-0.105c-1.136,0-1.646,0.207-1.646,0.826
			c0,0.407,0.41,0.612,0.821,0.612c0.924-0.104,2.666,0,3.484,0.208c3.385,0.716,4.207,2.354,4.414,5.844
			c0.203,3.284,0.203,6.155,0.203,22.162v18.053c0,9.851,0,17.956-0.514,22.265c-0.408,2.977-0.924,5.229-2.979,5.643
			c-0.926,0.201-2.154,0.407-3.072,0.407c-0.617,0-0.826,0.309-0.826,0.616c0,0.633,0.52,0.838,1.646,0.838
			c3.074,0,9.539-0.308,10.051-0.308s6.977,0.308,12.617,0.308c1.129,0,1.641-0.327,1.641-0.838c0-0.31-0.197-0.616-0.816-0.616
			c-0.924,0-3.184-0.206-4.613-0.407c-3.078-0.411-3.695-2.667-4.006-5.643c-0.51-4.309-0.51-12.414-0.51-22.265v-8.719
			c0-0.72,0.204-0.925,0.717-0.925c1.744,0,12.928,0,15.494,0.309c3.178,0.412,4.814,2.257,5.332,3.69
			c0.408,1.23,0.512,2.668,0.613,3.693c0,0.514,0.207,0.929,0.725,0.929c0.715,0,0.715-1.028,0.715-1.954
			c0-0.718,0.205-4.821,0.408-6.873c0.313-3.386,0.821-5.129,0.821-5.743c0-0.495-0.104-0.808-0.513-0.808
			c-0.416,0-0.719,0.5-1.131,1.01c-0.924,1.336-2.256,1.644-4.721,1.851c-1.438,0.104-2.871,0.104-4.611,0.104l-13.135,0.1
			c-0.614,0-0.719-0.309-0.719-0.921V8.675c0-0.819,0.307-1.13,0.922-1.13l15.799,0.311c4.004,0.103,6.363,1.934,6.979,3.266
			c0.617,1.334,0.927,3.078,0.927,3.881c0,0.722,0.203,1.229,0.715,1.229c0.515,0,0.722-0.613,0.82-1.126
			c0.206-1.301,0.409-5.813,0.516-6.841c0.308-2.871,0.815-4.103,0.815-4.822C406.504,2.931,406.302,2.519,405.896,2.519z"/>
		<path fill="#FFFFFF" d="M294.717,3.34c-4.203,0-7.592,0.311-8.721,0.311c-1.13,0-6.051-0.311-10.668-0.311
			c-1.232,0-2.052,0.104-2.052,0.721c0,0.411,0.101,0.719,0.819,0.719c0.821,0,3.186,0.104,5.028,0.512
			c3.181,0.821,3.898,3.079,3.999,9.749l1.129,52.111c-3.283-3.386-14.464-15.899-24.621-26.774
			C243.835,23.45,228.547,6.935,227.008,5.189c-1.022-1.025-2.769-3.282-3.586-3.282c-0.825,0-1.129,1.128-1.129,5.126
			l-0.104,58.786c0,9.334-0.516,12.31-3.077,13.026c-1.542,0.512-3.392,0.612-4.208,0.612c-0.511,0-0.821,0.205-0.821,0.616
			c0,0.736,0.614,0.838,1.638,0.838c4.621,0,8.926-0.308,9.851-0.308c0.922,0,5.027,0.308,10.875,0.308
			c1.232,0,1.847-0.205,1.847-0.838c0-0.411-0.303-0.616-0.821-0.616c-0.921,0-3.177-0.103-5.126-0.612
			c-2.769-0.822-3.799-3.486-4.001-11.902l-1.335-49.14c3.281,3.694,14.878,16.62,26.777,29.444
			c10.873,11.691,25.646,26.773,26.772,27.799c5.438,5.438,6.671,6.583,7.49,6.583c0.717,0,0.924-0.512,0.924-7.298l0.203-60.117
			c0-6.157,0.408-8.411,3.797-9.127c1.229-0.313,1.947-0.313,2.461-0.313c0.718,0,1.129-0.308,1.129-0.718
			C296.564,3.441,295.846,3.34,294.717,3.34z"/>
		<path fill="#FFFFFF" d="M203.911,3.34c-3.079,0-7.897,0.311-8.615,0.311c-0.616,0-6.26-0.311-10.874-0.311
			c-1.129,0-1.645,0.209-1.645,0.823c0,0.408,0.411,0.613,0.825,0.613c0.921,0,2.662,0.104,3.485,0.313
			c3.385,0.716,4.206,2.354,4.409,5.844c0.207,3.283,0.207,6.155,0.207,22.162v12.821c0,10.563-1.231,19.285-5.951,25.132
			c-3.693,4.412-9.846,7.39-16.104,7.39c-5.851,0-10.466-0.926-15.496-5.646c-4.408-4.206-7.688-10.565-7.688-25.339V33.093
			c0-16.005,0-18.877,0.203-22.161c0.204-3.589,1.024-5.437,3.796-5.844c1.229-0.208,1.846-0.313,2.563-0.313
			c0.411,0,0.825-0.205,0.825-0.613c0-0.614-0.515-0.823-1.646-0.823c-3.076,0-9.231,0.311-10.152,0.311
			c-0.924,0-7.186-0.311-11.799-0.311c-1.126,0-1.644,0.209-1.644,0.823c0,0.408,0.411,0.613,0.822,0.613
			c0.924,0,2.667,0.104,3.488,0.313c3.383,0.716,4.205,2.354,4.412,5.844c0.204,3.283,0.204,6.155,0.204,22.161v14.976
			c0,14.98,3.898,22.163,8.927,26.979c7.28,6.892,17.644,7.303,21.134,7.303c6.053,0,13.743-1.024,21.131-7.607
			c8.203-7.284,9.438-19.594,9.438-30.675V33.093c0-16.005,0-18.877,0.207-22.161c0.199-3.589,1.021-5.229,3.792-5.844
			c1.233-0.208,1.848-0.313,2.564-0.313c0.413,0,0.822-0.205,0.822-0.613C205.555,3.549,205.039,3.34,203.911,3.34z"/>
		<path fill="#FFFFFF" d="M568.399,44.066c-2.15,0-2.768,0.104-2.768,0.925c0,0.512,0.615,0.719,1.125,0.719
			c0.518,0.104,1.643,0.104,2.154,0.104c14.565,0,25.237-9.85,25.237-24.415c0-5.438-2.872-10.059-5.129-12.21
			c-1.644-1.537-6.254-5.849-19.078-5.849c-4.717,0-10.672,0.311-12.931,0.311c-0.823,0-6.979-0.311-11.596-0.311
			c-1.127,0-1.642,0.209-1.642,0.823c0,0.408,0.412,0.613,0.824,0.613c0.922,0,2.67,0.104,3.485,0.313
			c3.383,0.716,4.207,2.354,4.412,5.844c0.203,3.284,0.203,6.155,0.203,22.162v18.053c0,9.851,0,17.956-0.517,22.265
			c-0.406,2.977-0.923,5.229-2.974,5.643c-0.926,0.201-2.153,0.407-3.08,0.407c-0.612,0-0.815,0.309-0.815,0.616
			c0,0.633,0.515,0.838,1.646,0.838c3.069,0,9.533-0.308,9.845-0.308c0.512,0,6.979,0.308,12.618,0.308
			c1.127,0,1.644-0.327,1.644-0.838c0-0.31-0.205-0.616-0.821-0.616c-0.925,0-3.177-0.206-4.615-0.407
			c-3.078-0.411-3.694-2.667-4-5.643c-0.517-4.309-0.517-12.414-0.517-22.265V8.981c0-1.024,0.209-1.742,0.818-1.949
			c0.926-0.408,2.668-0.614,4.416-0.614c2.356,0,8.616-0.406,14.057,5.129c5.433,5.541,5.742,12.414,5.742,15.798
			C586.151,36.783,578.354,44.066,568.399,44.066z"/>
		<path fill="#FFFFFF" d="M510.649,36.886l-2.875-2.257c-9.85-7.693-12.52-11.388-12.52-17.234c0-7.488,5.543-11.898,12.617-11.898
			c9.44,0,12.211,4.311,12.826,5.437c0.612,1.13,1.233,3.898,1.332,5.132c0.102,0.821,0.209,1.333,0.823,1.333
			c0.511,0,0.714-0.718,0.714-2.356c0-6.979,0.409-10.361,0.409-10.875c0-0.516-0.2-0.721-1.022-0.721s-1.644-0.104-3.588-0.511
			c-2.568-0.613-5.541-1.025-9.541-1.025c-13.031,0-21.238,7.486-21.238,18.466c0,6.974,2.465,13.334,13.338,22.263l4.617,3.794
			c8.824,7.282,11.795,11.389,11.795,18.465c0,6.564-4.815,13.644-14.666,13.644c-6.877,0-13.646-2.87-15.184-10.461
			c-0.313-1.437-0.313-2.875-0.313-3.797c0-0.82-0.104-1.127-0.719-1.127c-0.519,0-0.717,0.511-0.822,1.64
			c-0.102,1.645-0.51,5.749-0.51,10.876c0,2.771,0.104,3.181,1.539,3.897c4.203,2.067,8.926,2.785,13.746,2.785
			c5.541,0,11.073-1.229,15.487-4.325c7.078-5.026,8.72-12.823,8.72-17.028C525.621,52.79,522.752,46.427,510.649,36.886z"/>
		<path fill="#FFFFFF" d="M467.563,67.047c-0.518,0-0.725,0.411-0.928,1.54c-0.719,4.206-1.947,6.26-4.613,7.389
			c-2.669,1.129-7.184,1.129-9.852,1.129c-10.057,0-11.592-1.333-11.896-8.413c-0.104-2.155,0-14.053,0-17.543v-9.026
			c0-0.409,0.202-0.718,0.715-0.718c1.742,0,11.899,0.204,14.676,0.515c3.996,0.408,4.922,2.151,5.332,3.587
			c0.41,1.334,0.41,2.361,0.41,3.388c0,0.516,0.203,0.925,0.719,0.925c0.721,0,0.721-1.127,0.721-1.949
			c0-0.715,0.199-4.517,0.406-6.565c0.313-3.387,0.824-5.13,0.824-5.744c0-0.613-0.207-0.819-0.512-0.819
			c-0.414,0-0.822,0.515-1.543,1.335c-0.928,1.024-2.361,1.229-4.822,1.433c-2.357,0.209-14.98,0.209-16.311,0.209
			c-0.518,0-0.615-0.311-0.615-1.026V8.368c0-0.719,0.202-1.023,0.615-1.023c1.128,0,12.307,0.102,14.053,0.307
			c5.541,0.614,6.564,1.846,7.279,3.49c0.521,1.229,0.621,2.973,0.621,3.689c0,0.82,0.201,1.333,0.814,1.333
			c0.416,0,0.623-0.616,0.721-1.126c0.207-1.231,0.414-5.746,0.515-6.772c0.31-2.871,0.817-4.103,0.817-4.822
			c0-0.51-0.098-0.921-0.408-0.921c-0.51,0-0.924,0.412-1.436,0.515c-0.822,0.205-2.463,0.408-4.408,0.517
			c-2.361,0.1-22.779,0.1-23.494,0.1l-4.203-0.206c-2.26-0.104-5.029-0.104-7.391-0.104c-1.125,0-1.639,0.211-1.639,0.823
			c0,0.408,0.404,0.614,0.813,0.614c0.928,0,2.674,0.104,3.494,0.312c3.387,0.716,4.205,2.354,4.408,5.844
			c0.207,3.285,0.207,6.155,0.207,22.162V51.15c0,9.851,0,17.956-0.514,22.265c-0.414,2.977-0.926,5.229-2.979,5.643
			c-0.918,0.201-2.146,0.407-3.068,0.407c-0.621,0-0.82,0.309-0.82,0.616c0,0.633,0.51,0.838,1.637,0.838
			c1.543,0,3.896-0.205,5.951-0.205c2.15-0.122,3.893-0.122,4.104-0.122c1.533,0,4.002,0.122,8,0.327
			c4,0.104,9.646,0.312,17.338,0.312c4.002,0,4.824,0,5.537-2.688c0.52-2.15,1.338-9.129,1.338-9.95
			C468.177,67.869,468.177,67.047,467.563,67.047z"/>
	</g>
	<g>
		<path fill="#FFFFFF" d="M342.274,425.148c-0.242,0-1.369-0.084-1.773-0.162c-0.854-0.188-0.967-0.59-1.07-1.426
			c-0.135-1.182-0.162-3.486-0.135-6.172l0.025-4.969c0.029-4.107,0.133-6.767,0.133-6.98c0-0.271-0.078-0.563-0.295-0.563
			c-0.188,0-0.402,0.157-0.644,0.317l-5.182,3.469c-0.109,0.082-0.188,0.189-0.188,0.269c0,0.11,0.106,0.242,0.188,0.242
			c0.105,0,0.188-0.025,0.318-0.104c0.674-0.322,2.553-1.291,3.063-1.291c0.428,0,0.482,0.293,0.482,0.832c0,1.476,0,2.631,0,4.082
			v4.699c0,2.684,0,4.99-0.084,6.172c-0.053,0.834-0.24,1.232-1.125,1.398c-0.511,0.104-1.826,0.188-2.146,0.188
			c-0.106,0-0.215,0.107-0.215,0.217c0,0.138,0.16,0.189,0.455,0.189c1.72,0,3.973-0.082,4.109-0.082
			c0.133,0,1.852,0.082,3.868,0.082c0.318,0,0.451-0.055,0.451-0.189C342.514,425.257,342.381,425.148,342.274,425.148z"/>
		<path fill="#FFFFFF" d="M385.261,413.867v-0.131c0.829-0.379,3.598-2.146,3.598-4.83c0-1.344-0.94-4.028-5.315-4.028
			c-2.017,0-3.515,0.506-4.349,0.913c-0.321,0.214-0.35,0.322-0.35,0.563c0,0.613,0.077,1.824,0.188,2.688
			c0.024,0.239,0.104,0.29,0.186,0.29c0.078,0,0.189-0.051,0.189-0.319c0-2.064,1.42-3.166,3.383-3.166
			c3.166,0,3.864,2.494,3.864,3.621c0,3.146-2.954,4.434-4.271,4.674c-0.346,0.053-0.612,0.133-0.612,0.32
			c0,0.187,0.188,0.239,0.696,0.35c1.746,0.352,4.968,1.607,4.968,5.211c0,3.191-2.147,4.752-4.86,4.752
			c-2.816,0-3.832-1.561-4.025-3.621c-0.026-0.297-0.053-0.377-0.188-0.377c-0.135,0-0.19,0.135-0.217,0.398
			c-0.078,0.588-0.188,2.096-0.188,3.354c0,0.322,0.053,0.513,0.43,0.75c0.564,0.328,2.178,0.65,3.275,0.65
			c4.779,0,8.029-3.146,8.029-6.904C389.688,415.912,386.949,414.271,385.261,413.867z"/>
		<path fill="#FFFFFF" d="M353.229,404.875c-3.704,0-6.415,2.556-6.415,6.253c0,2.264,1.607,5.188,5.422,5.188
			c1.072,0,2.44-0.404,3.223-1.234c0.08-0.079,0.104-0.135,0.104-0.213c0-0.082-0.053-0.19-0.133-0.19
			c-0.08,0-0.188,0.055-0.351,0.158c-0.351,0.217-0.885,0.483-2.146,0.483c-0.723,0-4.026-0.885-4.026-5.342
			c0-2.121,1.262-4.107,3.68-4.107c2.363,0,4.43,2.388,4.43,7.086c0,6.314-4.134,10.771-7.301,12.515
			c-0.163,0.086-0.27,0.221-0.27,0.385c0,0.158,0.105,0.271,0.215,0.271c0.107,0,0.269-0.031,0.428-0.109
			c3.277-1.646,9.294-6.289,9.294-13.832C359.379,408.095,357.013,404.875,353.229,404.875z"/>
		<path fill="#FFFFFF" d="M369.931,413.867v-0.131c0.823-0.379,3.596-2.146,3.596-4.83c0-1.344-0.938-4.028-5.317-4.028
			c-2.012,0-3.517,0.506-4.347,0.913c-0.325,0.214-0.352,0.322-0.352,0.563c0,0.613,0.079,1.824,0.188,2.688
			c0.024,0.239,0.108,0.29,0.188,0.29c0.077,0,0.188-0.051,0.188-0.319c0-2.064,1.422-3.166,3.381-3.166
			c3.166,0,3.867,2.494,3.867,3.621c0,3.146-2.953,4.434-4.27,4.674c-0.348,0.053-0.615,0.133-0.615,0.32
			c0,0.187,0.186,0.239,0.696,0.35c1.741,0.352,4.962,1.607,4.962,5.211c0,3.191-2.145,4.752-4.855,4.752
			c-2.818,0-3.842-1.561-4.027-3.621c-0.025-0.297-0.055-0.377-0.188-0.377c-0.131,0-0.188,0.135-0.211,0.398
			c-0.08,0.588-0.189,2.096-0.189,3.354c0,0.322,0.059,0.513,0.432,0.75c0.563,0.328,2.176,0.65,3.271,0.65
			c4.781,0,8.033-3.146,8.033-6.904C374.36,415.912,371.621,414.271,369.931,413.867z"/>
	</g>
	<rect x="151.017" y="377.98" fill="#FFFFFF" width="420.801" height="2.68"/>
	<g>
		<rect x="408.308" y="275.033" fill="#FFFFFF" width="258.646" height="6.83"/>
		<rect x="55.88" y="275.033" fill="#FFFFFF" width="258.647" height="6.83"/>
		<rect x="408.308" y="218.47" fill="#FFFFFF" width="258.646" height="6.832"/>
		<rect x="329.787" y="218.47" fill="#FFFFFF" width="63.258" height="6.832"/>
		<rect x="329.787" y="229.834" fill="#FFFFFF" width="6.832" height="57.736"/>
		<rect x="386.213" y="229.834" fill="#FFFFFF" width="6.832" height="57.736"/>
		<rect x="55.88" y="218.47" fill="#FFFFFF" width="258.647" height="6.832"/>
		<rect x="353.77" y="263.67" fill="#FFFFFF" width="6.83" height="6.83"/>
		<rect x="345.313" y="263.67" fill="#FFFFFF" width="6.83" height="6.83"/>
		<rect x="362.231" y="263.67" fill="#FFFFFF" width="6.83" height="6.83"/>
		<rect x="370.69" y="263.67" fill="#FFFFFF" width="6.832" height="6.83"/>
		<rect x="353.77" y="272.129" fill="#FFFFFF" width="6.83" height="6.83"/>
		<rect x="345.313" y="272.129" fill="#FFFFFF" width="6.83" height="6.83"/>
		<rect x="362.231" y="272.129" fill="#FFFFFF" width="6.83" height="6.83"/>
		<rect x="370.69" y="272.129" fill="#FFFFFF" width="6.832" height="6.83"/>
		<rect x="353.77" y="280.588" fill="#FFFFFF" width="6.83" height="6.83"/>
		<rect x="345.313" y="280.588" fill="#FFFFFF" width="6.83" height="6.83"/>
		<rect x="362.231" y="280.588" fill="#FFFFFF" width="6.83" height="6.83"/>
		<rect x="370.69" y="280.588" fill="#FFFFFF" width="6.832" height="6.83"/>
		<rect x="353.77" y="238.293" fill="#FFFFFF" width="6.83" height="6.83"/>
		<rect x="345.313" y="238.293" fill="#FFFFFF" width="6.83" height="6.83"/>
		<rect x="362.231" y="238.293" fill="#FFFFFF" width="6.83" height="6.83"/>
		<rect x="370.69" y="238.293" fill="#FFFFFF" width="6.832" height="6.83"/>
		<rect x="353.77" y="229.834" fill="#FFFFFF" width="6.83" height="6.832"/>
		<rect x="345.313" y="229.834" fill="#FFFFFF" width="6.83" height="6.832"/>
		<rect x="362.231" y="229.834" fill="#FFFFFF" width="6.83" height="6.832"/>
		<rect x="370.69" y="229.834" fill="#FFFFFF" width="6.832" height="6.832"/>
		<rect x="353.77" y="246.752" fill="#FFFFFF" width="6.83" height="6.832"/>
		<rect x="345.313" y="246.752" fill="#FFFFFF" width="6.83" height="6.832"/>
		<rect x="362.231" y="246.752" fill="#FFFFFF" width="6.83" height="6.832"/>
		<rect x="370.69" y="246.752" fill="#FFFFFF" width="6.832" height="6.832"/>
		<rect x="353.77" y="255.211" fill="#FFFFFF" width="6.83" height="6.83"/>
		<rect x="345.313" y="255.211" fill="#FFFFFF" width="6.83" height="6.83"/>
		<rect x="362.231" y="255.211" fill="#FFFFFF" width="6.83" height="6.83"/>
		<rect x="370.69" y="255.211" fill="#FFFFFF" width="6.832" height="6.83"/>
		<polygon fill="#FFFFFF" points="361.416,108.687 409.535,138.51 720.873,138.51 625.063,79.137 583.015,105.198 139.82,105.198 
			97.765,79.137 1.961,138.51 313.299,138.51 		"/>
		<polygon fill="#FFFFFF" points="361.416,123.088 320.49,148.451 402.34,148.451 		"/>
		<rect x="633.571" y="179.879" fill="#FFFFFF" width="6.832" height="6.83"/>
		<rect x="642.028" y="179.879" fill="#FFFFFF" width="6.83" height="6.83"/>
		<rect x="625.11" y="179.879" fill="#FFFFFF" width="6.832" height="6.83"/>
		<rect x="633.571" y="188.34" fill="#FFFFFF" width="6.832" height="6.83"/>
		<rect x="642.028" y="188.34" fill="#FFFFFF" width="6.83" height="6.83"/>
		<rect x="625.11" y="188.34" fill="#FFFFFF" width="6.832" height="6.83"/>
		<rect x="633.571" y="196.797" fill="#FFFFFF" width="6.832" height="6.83"/>
		<rect x="642.028" y="196.797" fill="#FFFFFF" width="6.83" height="6.83"/>
		<rect x="625.11" y="196.797" fill="#FFFFFF" width="6.832" height="6.83"/>
		<rect x="633.571" y="162.962" fill="#FFFFFF" width="6.832" height="6.832"/>
		<rect x="642.028" y="162.962" fill="#FFFFFF" width="6.83" height="6.832"/>
		<rect x="625.11" y="162.962" fill="#FFFFFF" width="6.832" height="6.832"/>
		<rect x="633.571" y="171.42" fill="#FFFFFF" width="6.832" height="6.832"/>
		<rect x="642.028" y="171.42" fill="#FFFFFF" width="6.83" height="6.832"/>
		<rect x="625.11" y="171.42" fill="#FFFFFF" width="6.832" height="6.832"/>
		<path fill="#FFFFFF" d="M648.858,157.978c-2.033-1.447-4.341-2.525-6.83-3.154v6.509h6.83V157.978z"/>
		<path fill="#FFFFFF" d="M631.942,154.825c-2.49,0.629-4.798,1.707-6.832,3.154v3.354h6.832V154.825z"/>
		<path fill="#FFFFFF" d="M640.403,154.479c-1.115-0.188-2.252-0.309-3.418-0.309c-1.168,0-2.302,0.118-3.414,0.309v6.854h6.832
			V154.479L640.403,154.479z"/>
		<rect x="577.524" y="179.879" fill="#FFFFFF" width="6.831" height="6.83"/>
		<rect x="585.979" y="179.879" fill="#FFFFFF" width="6.832" height="6.83"/>
		<rect x="569.063" y="179.879" fill="#FFFFFF" width="6.832" height="6.83"/>
		<rect x="577.524" y="188.34" fill="#FFFFFF" width="6.831" height="6.83"/>
		<rect x="585.979" y="188.34" fill="#FFFFFF" width="6.832" height="6.83"/>
		<rect x="569.063" y="188.34" fill="#FFFFFF" width="6.832" height="6.83"/>
		<rect x="577.524" y="196.797" fill="#FFFFFF" width="6.831" height="6.83"/>
		<rect x="585.979" y="196.797" fill="#FFFFFF" width="6.832" height="6.83"/>
		<rect x="569.063" y="196.797" fill="#FFFFFF" width="6.832" height="6.83"/>
		<rect x="577.524" y="162.962" fill="#FFFFFF" width="6.831" height="6.832"/>
		<rect x="585.979" y="162.962" fill="#FFFFFF" width="6.832" height="6.832"/>
		<rect x="569.063" y="162.962" fill="#FFFFFF" width="6.832" height="6.832"/>
		<rect x="577.524" y="171.42" fill="#FFFFFF" width="6.831" height="6.832"/>
		<rect x="585.979" y="171.42" fill="#FFFFFF" width="6.832" height="6.832"/>
		<rect x="569.063" y="171.42" fill="#FFFFFF" width="6.832" height="6.832"/>
		<path fill="#FFFFFF" d="M592.813,157.978c-2.033-1.447-4.343-2.525-6.832-3.154v6.509h6.832V157.978z"/>
		<path fill="#FFFFFF" d="M575.896,154.825c-2.494,0.629-4.798,1.707-6.832,3.154v3.354h6.832V154.825z"/>
		<path fill="#FFFFFF" d="M584.356,154.479c-1.117-0.188-2.253-0.309-3.421-0.309c-1.163,0-2.297,0.118-3.411,0.309v6.854h6.832
			V154.479z"/>
		<rect x="473.353" y="179.879" fill="#FFFFFF" width="6.832" height="6.83"/>
		<rect x="481.81" y="179.879" fill="#FFFFFF" width="6.83" height="6.83"/>
		<rect x="464.894" y="179.879" fill="#FFFFFF" width="6.828" height="6.83"/>
		<rect x="473.353" y="188.34" fill="#FFFFFF" width="6.832" height="6.83"/>
		<rect x="481.81" y="188.34" fill="#FFFFFF" width="6.83" height="6.83"/>
		<rect x="464.894" y="188.34" fill="#FFFFFF" width="6.828" height="6.83"/>
		<rect x="473.353" y="196.797" fill="#FFFFFF" width="6.832" height="6.83"/>
		<rect x="481.81" y="196.797" fill="#FFFFFF" width="6.83" height="6.83"/>
		<rect x="464.894" y="196.797" fill="#FFFFFF" width="6.828" height="6.83"/>
		<rect x="473.353" y="162.962" fill="#FFFFFF" width="6.832" height="6.832"/>
		<rect x="481.81" y="162.962" fill="#FFFFFF" width="6.83" height="6.832"/>
		<rect x="464.894" y="162.962" fill="#FFFFFF" width="6.828" height="6.832"/>
		<rect x="473.353" y="171.42" fill="#FFFFFF" width="6.832" height="6.832"/>
		<rect x="481.81" y="171.42" fill="#FFFFFF" width="6.83" height="6.832"/>
		<rect x="464.894" y="171.42" fill="#FFFFFF" width="6.828" height="6.832"/>
		<path fill="#FFFFFF" d="M488.64,157.978c-2.036-1.447-4.341-2.525-6.83-3.154v6.509h6.83V157.978z"/>
		<path fill="#FFFFFF" d="M471.722,154.825c-2.489,0.629-4.8,1.707-6.828,3.154v3.354h6.828V154.825z"/>
		<path fill="#FFFFFF" d="M480.185,154.479c-1.114-0.188-2.256-0.309-3.42-0.309c-1.166,0-2.304,0.118-3.412,0.309v6.854h6.832
			V154.479L480.185,154.479z"/>
		<rect x="521.474" y="179.879" fill="#FFFFFF" width="6.83" height="6.83"/>
		<rect x="529.927" y="179.879" fill="#FFFFFF" width="6.831" height="6.83"/>
		<rect x="513.011" y="179.879" fill="#FFFFFF" width="6.831" height="6.83"/>
		<rect x="521.474" y="188.34" fill="#FFFFFF" width="6.83" height="6.83"/>
		<rect x="529.927" y="188.34" fill="#FFFFFF" width="6.831" height="6.83"/>
		<rect x="513.011" y="188.34" fill="#FFFFFF" width="6.831" height="6.83"/>
		<rect x="521.474" y="196.797" fill="#FFFFFF" width="6.83" height="6.83"/>
		<rect x="529.927" y="196.797" fill="#FFFFFF" width="6.831" height="6.83"/>
		<rect x="513.011" y="196.797" fill="#FFFFFF" width="6.831" height="6.83"/>
		<rect x="521.474" y="162.962" fill="#FFFFFF" width="6.83" height="6.832"/>
		<rect x="529.927" y="162.962" fill="#FFFFFF" width="6.831" height="6.832"/>
		<rect x="513.011" y="162.962" fill="#FFFFFF" width="6.831" height="6.832"/>
		<rect x="521.474" y="171.42" fill="#FFFFFF" width="6.83" height="6.832"/>
		<rect x="529.927" y="171.42" fill="#FFFFFF" width="6.831" height="6.832"/>
		<rect x="513.011" y="171.42" fill="#FFFFFF" width="6.831" height="6.832"/>
		<path fill="#FFFFFF" d="M536.758,157.978c-2.032-1.447-4.338-2.525-6.829-3.154v6.509h6.829V157.978z"/>
		<path fill="#FFFFFF" d="M519.845,154.825c-2.492,0.629-4.802,1.707-6.832,3.154v3.354h6.832V154.825z"/>
		<path fill="#FFFFFF" d="M528.306,154.479c-1.114-0.188-2.259-0.309-3.42-0.309c-1.169,0-2.306,0.118-3.412,0.309v6.854h6.83
			v-6.854H528.306z"/>
		<rect x="425.229" y="179.879" fill="#FFFFFF" width="6.832" height="6.83"/>
		<rect x="433.685" y="179.879" fill="#FFFFFF" width="6.832" height="6.83"/>
		<rect x="416.769" y="179.879" fill="#FFFFFF" width="6.832" height="6.83"/>
		<rect x="425.229" y="188.34" fill="#FFFFFF" width="6.832" height="6.83"/>
		<rect x="433.685" y="188.34" fill="#FFFFFF" width="6.832" height="6.83"/>
		<rect x="416.769" y="188.34" fill="#FFFFFF" width="6.832" height="6.83"/>
		<rect x="425.229" y="196.797" fill="#FFFFFF" width="6.832" height="6.83"/>
		<rect x="433.685" y="196.797" fill="#FFFFFF" width="6.832" height="6.83"/>
		<rect x="416.769" y="196.797" fill="#FFFFFF" width="6.832" height="6.83"/>
		<rect x="425.229" y="162.962" fill="#FFFFFF" width="6.832" height="6.832"/>
		<rect x="433.685" y="162.962" fill="#FFFFFF" width="6.832" height="6.832"/>
		<rect x="416.769" y="162.962" fill="#FFFFFF" width="6.832" height="6.832"/>
		<rect x="425.229" y="171.42" fill="#FFFFFF" width="6.832" height="6.832"/>
		<rect x="433.685" y="171.42" fill="#FFFFFF" width="6.832" height="6.832"/>
		<rect x="416.769" y="171.42" fill="#FFFFFF" width="6.832" height="6.832"/>
		<path fill="#FFFFFF" d="M440.517,157.978c-2.034-1.447-4.341-2.525-6.832-3.154v6.509h6.832V157.978z"/>
		<path fill="#FFFFFF" d="M423.601,154.825c-2.492,0.629-4.8,1.707-6.832,3.154v3.354h6.832V154.825z"/>
		<path fill="#FFFFFF" d="M432.063,154.479c-1.115-0.188-2.253-0.309-3.419-0.309c-1.168,0-2.302,0.118-3.413,0.309v6.854h6.832
			V154.479L432.063,154.479z"/>
		<rect x="633.567" y="263.666" fill="#FFFFFF" width="6.832" height="6.83"/>
		<rect x="625.11" y="263.666" fill="#FFFFFF" width="6.832" height="6.83"/>
		<rect x="642.028" y="263.666" fill="#FFFFFF" width="6.83" height="6.83"/>
		<rect x="633.567" y="238.291" fill="#FFFFFF" width="6.832" height="6.828"/>
		<rect x="625.11" y="238.291" fill="#FFFFFF" width="6.832" height="6.828"/>
		<rect x="642.028" y="238.291" fill="#FFFFFF" width="6.83" height="6.828"/>
		<rect x="633.567" y="229.834" fill="#FFFFFF" width="6.832" height="6.832"/>
		<rect x="625.11" y="229.834" fill="#FFFFFF" width="6.832" height="6.832"/>
		<rect x="642.028" y="229.834" fill="#FFFFFF" width="6.83" height="6.832"/>
		<rect x="633.567" y="246.75" fill="#FFFFFF" width="6.832" height="6.83"/>
		<rect x="625.11" y="246.75" fill="#FFFFFF" width="6.832" height="6.83"/>
		<rect x="642.028" y="246.75" fill="#FFFFFF" width="6.83" height="6.83"/>
		<rect x="633.567" y="255.211" fill="#FFFFFF" width="6.832" height="6.83"/>
		<rect x="625.11" y="255.211" fill="#FFFFFF" width="6.832" height="6.83"/>
		<rect x="642.028" y="255.211" fill="#FFFFFF" width="6.83" height="6.83"/>
		<rect x="577.519" y="263.666" fill="#FFFFFF" width="6.832" height="6.83"/>
		<rect x="569.063" y="263.666" fill="#FFFFFF" width="6.832" height="6.83"/>
		<rect x="585.979" y="263.666" fill="#FFFFFF" width="6.832" height="6.83"/>
		<rect x="577.519" y="238.291" fill="#FFFFFF" width="6.832" height="6.828"/>
		<rect x="569.063" y="238.291" fill="#FFFFFF" width="6.832" height="6.828"/>
		<rect x="585.979" y="238.291" fill="#FFFFFF" width="6.832" height="6.828"/>
		<rect x="577.519" y="229.834" fill="#FFFFFF" width="6.832" height="6.832"/>
		<rect x="569.063" y="229.834" fill="#FFFFFF" width="6.832" height="6.832"/>
		<rect x="585.979" y="229.834" fill="#FFFFFF" width="6.832" height="6.832"/>
		<rect x="577.519" y="246.75" fill="#FFFFFF" width="6.832" height="6.83"/>
		<rect x="569.063" y="246.75" fill="#FFFFFF" width="6.832" height="6.83"/>
		<rect x="585.979" y="246.75" fill="#FFFFFF" width="6.832" height="6.83"/>
		<rect x="577.519" y="255.211" fill="#FFFFFF" width="6.832" height="6.83"/>
		<rect x="569.063" y="255.211" fill="#FFFFFF" width="6.832" height="6.83"/>
		<rect x="585.979" y="255.211" fill="#FFFFFF" width="6.832" height="6.83"/>
		<rect x="504.549" y="229.834" fill="#FFFFFF" width="32.209" height="40.662"/>
		<rect x="408.308" y="229.834" fill="#FFFFFF" width="32.209" height="40.662"/>
		<rect x="456.431" y="229.834" fill="#FFFFFF" width="32.207" height="40.662"/>
		<rect x="82.431" y="179.879" fill="#FFFFFF" width="6.832" height="6.83"/>
		<rect x="73.977" y="179.879" fill="#FFFFFF" width="6.83" height="6.83"/>
		<rect x="90.892" y="179.879" fill="#FFFFFF" width="6.832" height="6.83"/>
		<rect x="82.431" y="188.34" fill="#FFFFFF" width="6.832" height="6.83"/>
		<rect x="73.977" y="188.34" fill="#FFFFFF" width="6.83" height="6.83"/>
		<rect x="90.892" y="188.34" fill="#FFFFFF" width="6.832" height="6.83"/>
		<rect x="82.431" y="196.797" fill="#FFFFFF" width="6.832" height="6.83"/>
		<rect x="73.977" y="196.797" fill="#FFFFFF" width="6.83" height="6.83"/>
		<rect x="90.892" y="196.797" fill="#FFFFFF" width="6.832" height="6.83"/>
		<rect x="82.431" y="162.962" fill="#FFFFFF" width="6.832" height="6.832"/>
		<rect x="73.977" y="162.962" fill="#FFFFFF" width="6.83" height="6.832"/>
		<rect x="90.892" y="162.962" fill="#FFFFFF" width="6.832" height="6.832"/>
		<rect x="82.431" y="171.42" fill="#FFFFFF" width="6.832" height="6.832"/>
		<rect x="73.977" y="171.42" fill="#FFFFFF" width="6.83" height="6.832"/>
		<rect x="90.892" y="171.42" fill="#FFFFFF" width="6.832" height="6.832"/>
		<path fill="#FFFFFF" d="M80.807,154.825c-2.492,0.629-4.797,1.707-6.83,3.154v3.354h6.83V154.825z"/>
		<path fill="#FFFFFF" d="M97.724,157.978c-2.034-1.447-4.339-2.525-6.832-3.154v6.509h6.832V157.978z"/>
		<path fill="#FFFFFF" d="M89.263,154.479c-1.112-0.188-2.246-0.309-3.413-0.309c-1.166,0-2.303,0.118-3.418,0.309v6.854h6.832
			L89.263,154.479L89.263,154.479z"/>
		<rect x="138.479" y="179.879" fill="#FFFFFF" width="6.83" height="6.83"/>
		<rect x="130.023" y="179.879" fill="#FFFFFF" width="6.832" height="6.83"/>
		<rect x="146.94" y="179.879" fill="#FFFFFF" width="6.83" height="6.83"/>
		<rect x="138.479" y="188.34" fill="#FFFFFF" width="6.83" height="6.83"/>
		<rect x="130.023" y="188.34" fill="#FFFFFF" width="6.832" height="6.83"/>
		<rect x="146.94" y="188.34" fill="#FFFFFF" width="6.83" height="6.83"/>
		<rect x="138.479" y="196.797" fill="#FFFFFF" width="6.83" height="6.83"/>
		<rect x="130.023" y="196.797" fill="#FFFFFF" width="6.832" height="6.83"/>
		<rect x="146.94" y="196.797" fill="#FFFFFF" width="6.83" height="6.83"/>
		<rect x="138.479" y="162.962" fill="#FFFFFF" width="6.83" height="6.832"/>
		<rect x="130.023" y="162.962" fill="#FFFFFF" width="6.832" height="6.832"/>
		<rect x="146.94" y="162.962" fill="#FFFFFF" width="6.83" height="6.832"/>
		<rect x="138.479" y="171.42" fill="#FFFFFF" width="6.83" height="6.832"/>
		<rect x="130.023" y="171.42" fill="#FFFFFF" width="6.832" height="6.832"/>
		<rect x="146.94" y="171.42" fill="#FFFFFF" width="6.83" height="6.832"/>
		<path fill="#FFFFFF" d="M136.855,154.825c-2.493,0.629-4.801,1.707-6.832,3.154v3.354h6.832V154.825z"/>
		<path fill="#FFFFFF" d="M153.771,157.978c-2.035-1.447-4.338-2.525-6.83-3.154v6.509h6.83V157.978z"/>
		<path fill="#FFFFFF" d="M145.31,154.479c-1.114-0.188-2.249-0.309-3.412-0.309c-1.168,0-2.304,0.118-3.418,0.309v6.854h6.83
			V154.479z"/>
		<rect x="242.649" y="179.879" fill="#FFFFFF" width="6.832" height="6.83"/>
		<rect x="234.195" y="179.879" fill="#FFFFFF" width="6.831" height="6.83"/>
		<rect x="251.11" y="179.879" fill="#FFFFFF" width="6.832" height="6.83"/>
		<rect x="242.649" y="188.34" fill="#FFFFFF" width="6.832" height="6.83"/>
		<rect x="234.195" y="188.34" fill="#FFFFFF" width="6.831" height="6.83"/>
		<rect x="251.11" y="188.34" fill="#FFFFFF" width="6.832" height="6.83"/>
		<rect x="242.649" y="196.797" fill="#FFFFFF" width="6.832" height="6.83"/>
		<rect x="234.195" y="196.797" fill="#FFFFFF" width="6.831" height="6.83"/>
		<rect x="251.11" y="196.797" fill="#FFFFFF" width="6.832" height="6.83"/>
		<rect x="242.649" y="162.962" fill="#FFFFFF" width="6.832" height="6.832"/>
		<rect x="234.195" y="162.962" fill="#FFFFFF" width="6.831" height="6.832"/>
		<rect x="251.11" y="162.962" fill="#FFFFFF" width="6.832" height="6.832"/>
		<rect x="242.649" y="171.42" fill="#FFFFFF" width="6.832" height="6.832"/>
		<rect x="234.195" y="171.42" fill="#FFFFFF" width="6.831" height="6.832"/>
		<rect x="251.11" y="171.42" fill="#FFFFFF" width="6.832" height="6.832"/>
		<path fill="#FFFFFF" d="M241.025,154.825c-2.492,0.629-4.795,1.707-6.831,3.154v3.354h6.831V154.825z"/>
		<path fill="#FFFFFF" d="M257.942,157.978c-2.031-1.447-4.341-2.525-6.832-3.154v6.509h6.832V157.978z"/>
		<path fill="#FFFFFF" d="M249.481,154.479c-1.109-0.188-2.245-0.309-3.414-0.309c-1.162,0-2.302,0.118-3.418,0.309v6.854h6.832
			V154.479z"/>
		<rect x="194.53" y="179.879" fill="#FFFFFF" width="6.831" height="6.83"/>
		<rect x="186.074" y="179.879" fill="#FFFFFF" width="6.831" height="6.83"/>
		<rect x="202.99" y="179.879" fill="#FFFFFF" width="6.832" height="6.83"/>
		<rect x="194.53" y="188.34" fill="#FFFFFF" width="6.831" height="6.83"/>
		<rect x="186.074" y="188.34" fill="#FFFFFF" width="6.831" height="6.83"/>
		<rect x="202.99" y="188.34" fill="#FFFFFF" width="6.832" height="6.83"/>
		<rect x="194.53" y="196.797" fill="#FFFFFF" width="6.831" height="6.83"/>
		<rect x="186.074" y="196.797" fill="#FFFFFF" width="6.831" height="6.83"/>
		<rect x="202.99" y="196.797" fill="#FFFFFF" width="6.832" height="6.83"/>
		<rect x="194.53" y="162.962" fill="#FFFFFF" width="6.831" height="6.832"/>
		<rect x="186.074" y="162.962" fill="#FFFFFF" width="6.831" height="6.832"/>
		<rect x="202.99" y="162.962" fill="#FFFFFF" width="6.832" height="6.832"/>
		<rect x="194.53" y="171.42" fill="#FFFFFF" width="6.831" height="6.832"/>
		<rect x="186.074" y="171.42" fill="#FFFFFF" width="6.831" height="6.832"/>
		<rect x="202.99" y="171.42" fill="#FFFFFF" width="6.832" height="6.832"/>
		<path fill="#FFFFFF" d="M192.905,154.825c-2.492,0.629-4.794,1.707-6.831,3.154v3.354h6.831V154.825z"/>
		<path fill="#FFFFFF" d="M209.822,157.978c-2.032-1.447-4.339-2.525-6.832-3.154v6.509h6.832V157.978z"/>
		<path fill="#FFFFFF" d="M201.361,154.479c-1.111-0.188-2.245-0.309-3.413-0.309c-1.165,0-2.303,0.118-3.418,0.309v6.854h6.831
			V154.479z"/>
		<rect x="290.772" y="179.879" fill="#FFFFFF" width="6.832" height="6.83"/>
		<rect x="282.318" y="179.879" fill="#FFFFFF" width="6.831" height="6.83"/>
		<rect x="299.233" y="179.879" fill="#FFFFFF" width="6.832" height="6.83"/>
		<rect x="290.772" y="188.34" fill="#FFFFFF" width="6.832" height="6.83"/>
		<rect x="282.318" y="188.34" fill="#FFFFFF" width="6.831" height="6.83"/>
		<rect x="299.233" y="188.34" fill="#FFFFFF" width="6.832" height="6.83"/>
		<rect x="290.772" y="196.797" fill="#FFFFFF" width="6.832" height="6.83"/>
		<rect x="282.318" y="196.797" fill="#FFFFFF" width="6.831" height="6.83"/>
		<rect x="299.233" y="196.797" fill="#FFFFFF" width="6.832" height="6.83"/>
		<rect x="290.772" y="162.962" fill="#FFFFFF" width="6.832" height="6.832"/>
		<rect x="282.318" y="162.962" fill="#FFFFFF" width="6.831" height="6.832"/>
		<rect x="299.233" y="162.962" fill="#FFFFFF" width="6.832" height="6.832"/>
		<rect x="290.772" y="171.42" fill="#FFFFFF" width="6.832" height="6.832"/>
		<rect x="282.318" y="171.42" fill="#FFFFFF" width="6.831" height="6.832"/>
		<rect x="299.233" y="171.42" fill="#FFFFFF" width="6.832" height="6.832"/>
		<path fill="#FFFFFF" d="M289.148,154.825c-2.493,0.629-4.799,1.707-6.831,3.154v3.354h6.831V154.825z"/>
		<path fill="#FFFFFF" d="M306.065,157.978c-2.034-1.447-4.341-2.525-6.832-3.154v6.509h6.832V157.978z"/>
		<path fill="#FFFFFF" d="M297.604,154.479c-1.112-0.188-2.246-0.309-3.414-0.309c-1.166,0-2.302,0.118-3.418,0.309v6.854h6.832
			V154.479z"/>
		<rect x="82.436" y="263.666" fill="#FFFFFF" width="6.832" height="6.83"/>
		<rect x="90.892" y="263.666" fill="#FFFFFF" width="6.832" height="6.83"/>
		<rect x="73.977" y="263.666" fill="#FFFFFF" width="6.83" height="6.83"/>
		<rect x="82.436" y="238.291" fill="#FFFFFF" width="6.832" height="6.828"/>
		<rect x="90.892" y="238.291" fill="#FFFFFF" width="6.832" height="6.828"/>
		<rect x="73.977" y="238.291" fill="#FFFFFF" width="6.83" height="6.828"/>
		<rect x="82.436" y="229.834" fill="#FFFFFF" width="6.832" height="6.832"/>
		<rect x="90.892" y="229.834" fill="#FFFFFF" width="6.832" height="6.832"/>
		<rect x="73.977" y="229.834" fill="#FFFFFF" width="6.83" height="6.832"/>
		<rect x="82.436" y="246.75" fill="#FFFFFF" width="6.832" height="6.83"/>
		<rect x="90.892" y="246.75" fill="#FFFFFF" width="6.832" height="6.83"/>
		<rect x="73.977" y="246.75" fill="#FFFFFF" width="6.83" height="6.83"/>
		<rect x="82.436" y="255.211" fill="#FFFFFF" width="6.832" height="6.83"/>
		<rect x="90.892" y="255.211" fill="#FFFFFF" width="6.832" height="6.83"/>
		<rect x="73.977" y="255.211" fill="#FFFFFF" width="6.83" height="6.83"/>
		<rect x="138.484" y="263.666" fill="#FFFFFF" width="6.832" height="6.83"/>
		<rect x="146.94" y="263.666" fill="#FFFFFF" width="6.83" height="6.83"/>
		<rect x="130.023" y="263.666" fill="#FFFFFF" width="6.832" height="6.83"/>
		<rect x="138.484" y="238.291" fill="#FFFFFF" width="6.832" height="6.828"/>
		<rect x="146.94" y="238.291" fill="#FFFFFF" width="6.83" height="6.828"/>
		<rect x="130.023" y="238.291" fill="#FFFFFF" width="6.832" height="6.828"/>
		<rect x="138.484" y="229.834" fill="#FFFFFF" width="6.832" height="6.832"/>
		<rect x="146.94" y="229.834" fill="#FFFFFF" width="6.83" height="6.832"/>
		<rect x="130.023" y="229.834" fill="#FFFFFF" width="6.832" height="6.832"/>
		<rect x="138.484" y="246.75" fill="#FFFFFF" width="6.832" height="6.83"/>
		<rect x="146.94" y="246.75" fill="#FFFFFF" width="6.83" height="6.83"/>
		<rect x="130.023" y="246.75" fill="#FFFFFF" width="6.832" height="6.83"/>
		<rect x="138.484" y="255.211" fill="#FFFFFF" width="6.832" height="6.83"/>
		<rect x="146.94" y="255.211" fill="#FFFFFF" width="6.83" height="6.83"/>
		<rect x="130.023" y="255.211" fill="#FFFFFF" width="6.832" height="6.83"/>
		<rect x="186.074" y="229.834" fill="#FFFFFF" width="32.21" height="40.662"/>
		<rect x="282.318" y="229.834" fill="#FFFFFF" width="32.209" height="40.662"/>
		<rect x="234.197" y="229.834" fill="#FFFFFF" width="32.207" height="40.662"/>
		<polygon fill="#FFFFFF" points="408.308,293.463 314.528,293.463 314.528,286.394 55.88,286.394 55.88,300.056 666.955,300.056 
			666.955,286.394 408.308,286.394 		"/>
		<path fill="#FFFFFF" d="M361.416,154.454l-27.957-0.014c0,0.007,0,0.018,0,0.023h-0.012c0,0.314,0.019,0.622,0.02,0.938
			c-0.063,10.376,1.441,19.712,4.494,28.26c0.648,1.946,1.343,3.872,2.13,5.747c4.43,10.548,11.524,18.72,21.307,24.524
			c0.008-0.005,0.012-0.013,0.021-0.014c0.008,0.001,0.013,0.009,0.021,0.014c9.778-5.807,16.877-13.979,21.305-24.524
			c0.789-1.875,1.482-3.801,2.131-5.747c3.051-8.548,4.557-17.884,4.492-28.26c0.004-0.314,0.021-0.622,0.021-0.938h-0.014
			c0-0.008,0-0.019,0-0.023L361.416,154.454z"/>
	</g>
</g>
</svg>
